<?xml version="1.0" encoding="utf-8"?>
<!-- Generator: Adobe Illustrator 22.1.0, SVG Export Plug-In . SVG Version: 6.00 Build 0)  -->
<svg version="1.1" id="Layer_1" xmlns="http://www.w3.org/2000/svg" xmlns:xlink="http://www.w3.org/1999/xlink" x="0px" y="0px"
	 viewBox="0 0 500 500" style="enable-background:new 0 0 500 500;" xml:space="preserve">
<style type="text/css">
	.st0{fill:url(#SVGID_1_);}
	.st1{fill:url(#SVGID_2_);}
	.st2{fill:url(#SVGID_3_);}
	.st3{fill:url(#SVGID_4_);}
	.st4{fill:url(#SVGID_5_);}
	.st5{fill:url(#SVGID_6_);}
</style>
<g>
	<g>
		<g>
			<g>
				<g>
					<linearGradient id="SVGID_1_" gradientUnits="userSpaceOnUse" x1="278.1117" y1="236.8812" x2="296.8528" y2="236.8812">
						<stop  offset="0" style="stop-color:#FF626B"/>
						<stop  offset="1" style="stop-color:#F6AE04"/>
					</linearGradient>
					<path class="st0" d="M287.5,227.5c-5.2,0-9.4,4.2-9.4,9.4s4.2,9.4,9.4,9.4c5.2,0,9.4-4.2,9.4-9.4S292.7,227.5,287.5,227.5z"/>
				</g>
			</g>
		</g>
		<g>
			<g>
				<g>
					<linearGradient id="SVGID_2_" gradientUnits="userSpaceOnUse" x1="240.6295" y1="180.6579" x2="259.3705" y2="180.6579">
						<stop  offset="0" style="stop-color:#FF626B"/>
						<stop  offset="1" style="stop-color:#F6AE04"/>
					</linearGradient>
					<path class="st1" d="M250,171.3c-5.2,0-9.4,4.2-9.4,9.4s4.2,9.4,9.4,9.4c5.2,0,9.4-4.2,9.4-9.4S255.2,171.3,250,171.3z"/>
				</g>
			</g>
		</g>
		<g>
			<g>
				<g>
					<linearGradient id="SVGID_3_" gradientUnits="userSpaceOnUse" x1="128.1829" y1="424.2922" x2="146.924" y2="424.2922">
						<stop  offset="0" style="stop-color:#FF626B"/>
						<stop  offset="1" style="stop-color:#F6AE04"/>
					</linearGradient>
					<path class="st2" d="M137.6,414.9c-5.2,0-9.4,4.2-9.4,9.4s4.2,9.4,9.4,9.4s9.4-4.2,9.4-9.4S142.7,414.9,137.6,414.9z"/>
				</g>
			</g>
		</g>
		<g>
			<g>
				<g>
					<linearGradient id="SVGID_4_" gradientUnits="userSpaceOnUse" x1="55.5524" y1="250" x2="444.4476" y2="250">
						<stop  offset="0" style="stop-color:#FF626B"/>
						<stop  offset="1" style="stop-color:#F6AE04"/>
					</linearGradient>
					<path class="st3" d="M435.9,392.1L315.6,178.2V64.7c10.9-3.9,18.7-14.3,18.7-26.5c0-15.5-12.6-28.1-28.1-28.1H193.8
						c-15.5,0-28.1,12.6-28.1,28.1c0,12.2,7.8,22.6,18.7,26.5v113.5L64.1,392.1c-11.6,20.5-11.3,44.9,0.5,65.3
						c11.9,20.3,33.1,32.5,56.6,32.5h257.5c23.6,0,44.7-12.1,56.6-32.5C447.3,437.1,447.5,412.7,435.9,392.1z M201.9,185.3
						c0.8-1.4,1.2-3,1.2-4.6V66.3h9.4c5.2,0,9.4-4.2,9.4-9.4s-4.2-9.4-9.4-9.4h-18.7c-5.2,0-9.4-4.2-9.4-9.4s4.2-9.4,9.4-9.4h112.4
						c5.2,0,9.4,4.2,9.4,9.4s-4.2,9.4-9.4,9.4h-18.7c-5.2,0-9.4,4.2-9.4,9.4s4.2,9.4,9.4,9.4h9.4v114.3c0,1.6,0.4,3.2,1.2,4.6
						l55.2,98.2c-33.7-2.7-67.3,4.1-98.2,20.1c-39.7,20.5-83.9,24.2-125.6,10.5L201.9,185.3z M419.2,447.9
						c-8.5,14.5-23.6,23.2-40.4,23.2H121.2c-16.8,0-31.9-8.7-40.4-23.2c-8.5-14.5-8.6-32-0.4-46.6l39.7-70.6
						c19.3,6.7,39.2,10.1,59.4,10.1c3,0,6-0.1,9-0.2c26.1-1.3,51.4-8.2,75.1-20.4c31.7-16.4,66.5-22.1,101-16.5l54.9,97.6
						C427.8,416,427.7,433.4,419.2,447.9z"/>
				</g>
			</g>
		</g>
		<g>
			<g>
				<g>
					<linearGradient id="SVGID_5_" gradientUnits="userSpaceOnUse" x1="184.4062" y1="255.6223" x2="240.6295" y2="255.6223">
						<stop  offset="0" style="stop-color:#FF626B"/>
						<stop  offset="1" style="stop-color:#F6AE04"/>
					</linearGradient>
					<path class="st4" d="M212.5,227.5c-15.5,0-28.1,12.6-28.1,28.1s12.6,28.1,28.1,28.1s28.1-12.6,28.1-28.1S228,227.5,212.5,227.5
						z M212.5,265c-5.2,0-9.4-4.2-9.4-9.4c0-5.2,4.2-9.4,9.4-9.4s9.4,4.2,9.4,9.4C221.9,260.8,217.7,265,212.5,265z"/>
				</g>
			</g>
		</g>
		<g>
			<g>
				<g>
					<linearGradient id="SVGID_6_" gradientUnits="userSpaceOnUse" x1="165.6651" y1="424.2922" x2="371.8171" y2="424.2922">
						<stop  offset="0" style="stop-color:#FF626B"/>
						<stop  offset="1" style="stop-color:#F6AE04"/>
					</linearGradient>
					<path class="st5" d="M362.4,414.9H175c-5.2,0-9.4,4.2-9.4,9.4s4.2,9.4,9.4,9.4h187.4c5.2,0,9.4-4.2,9.4-9.4
						S367.6,414.9,362.4,414.9z"/>
				</g>
			</g>
		</g>
	</g>
</g>
</svg>
