<?xml version="1.0" encoding="utf-8"?>
<!-- Generator: Adobe Illustrator 22.1.0, SVG Export Plug-In . SVG Version: 6.00 Build 0)  -->
<svg version="1.1" id="Layer_1" xmlns="http://www.w3.org/2000/svg" xmlns:xlink="http://www.w3.org/1999/xlink" x="0px" y="0px"
	 viewBox="0 0 500 500" style="enable-background:new 0 0 500 500;" xml:space="preserve">
<style type="text/css">
	.st0{fill:#0071BC;}
	.st1{fill:#FFFFFF;}
</style>
<g>
	<g>
		<path class="st0" d="M250,497.6C113.5,497.6,2.4,386.5,2.4,250C2.4,113.5,113.5,2.4,250,2.4S497.6,113.5,497.6,250
			C497.6,386.5,386.5,497.6,250,497.6z"/>
	</g>
	<g>
		<g>
			<g>
				<g>
					<path class="st1" d="M274.3,225.8c-3.1,0-5.5,2.5-5.5,5.5c0,3.1,2.5,5.5,5.5,5.5s5.5-2.5,5.5-5.5
						C279.8,228.3,277.3,225.8,274.3,225.8z"/>
				</g>
			</g>
		</g>
		<g>
			<g>
				<g>
					<path class="st1" d="M252.1,192.6c-3.1,0-5.5,2.5-5.5,5.5s2.5,5.5,5.5,5.5s5.5-2.5,5.5-5.5S255.2,192.6,252.1,192.6z"/>
				</g>
			</g>
		</g>
		<g>
			<g>
				<g>
					<path class="st1" d="M185.7,336.6c-3.1,0-5.5,2.5-5.5,5.5s2.5,5.5,5.5,5.5c3.1,0,5.5-2.5,5.5-5.5S188.7,336.6,185.7,336.6z"/>
				</g>
			</g>
		</g>
		<g>
			<g>
				<g>
					<path class="st1" d="M362,323.1l-71.1-126.4v-67.1c6.4-2.3,11.1-8.4,11.1-15.7c0-9.2-7.5-16.6-16.6-16.6h-66.5
						c-9.2,0-16.6,7.5-16.6,16.6c0,7.2,4.6,13.4,11.1,15.7v67.1l-71.1,126.4c-6.8,12.1-6.7,26.6,0.3,38.6c7,12,19.5,19.2,33.5,19.2
						h152.2c13.9,0,26.4-7.2,33.5-19.2C368.7,349.7,368.8,335.3,362,323.1z M223.7,200.9c0.5-0.8,0.7-1.8,0.7-2.7v-67.6h5.5
						c3.1,0,5.5-2.5,5.5-5.5c0-3.1-2.5-5.5-5.5-5.5h-11.1c-3.1,0-5.5-2.5-5.5-5.5s2.5-5.5,5.5-5.5h66.5c3.1,0,5.5,2.5,5.5,5.5
						s-2.5,5.5-5.5,5.5h-11.1c-3.1,0-5.5,2.5-5.5,5.5c0,3.1,2.5,5.5,5.5,5.5h5.5v67.6c0,1,0.2,1.9,0.7,2.7l32.6,58
						c-19.9-1.6-39.8,2.4-58,11.9c-23.5,12.1-49.6,14.3-74.2,6.2L223.7,200.9z M352.1,356.1c-5,8.6-14,13.7-23.9,13.7H176
						c-9.9,0-18.9-5.1-23.9-13.7c-5-8.6-5.1-18.9-0.2-27.6l23.5-41.7c11.4,4,23.2,6,35.1,6c1.8,0,3.5,0,5.3-0.1
						c15.5-0.8,30.4-4.8,44.4-12.1c18.7-9.7,39.3-13,59.7-9.7l32.5,57.7C357.2,337.2,357.1,347.5,352.1,356.1z"/>
				</g>
			</g>
		</g>
		<g>
			<g>
				<g>
					<path class="st1" d="M230,225.8c-9.2,0-16.6,7.5-16.6,16.6c0,9.2,7.5,16.6,16.6,16.6c9.2,0,16.6-7.5,16.6-16.6
						C246.6,233.3,239.1,225.8,230,225.8z M230,248c-3.1,0-5.5-2.5-5.5-5.5s2.5-5.5,5.5-5.5s5.5,2.5,5.5,5.5S233,248,230,248z"/>
				</g>
			</g>
		</g>
		<g>
			<g>
				<g>
					<path class="st1" d="M318.6,336.6H207.8c-3.1,0-5.5,2.5-5.5,5.5c0,3.1,2.5,5.5,5.5,5.5h110.8c3.1,0,5.5-2.5,5.5-5.5
						C324.1,339.1,321.6,336.6,318.6,336.6z"/>
				</g>
			</g>
		</g>
	</g>
</g>
</svg>
