<?xml version="1.0" encoding="utf-8"?>
<!-- Generator: Adobe Illustrator 22.1.0, SVG Export Plug-In . SVG Version: 6.00 Build 0)  -->
<svg version="1.1" id="Layer_1" xmlns="http://www.w3.org/2000/svg" xmlns:xlink="http://www.w3.org/1999/xlink" x="0px" y="0px"
	 viewBox="0 0 500 500" style="enable-background:new 0 0 500 500;" xml:space="preserve">
<style type="text/css">
	.st0{fill:#FBB03B;}
</style>
<g>
	<g>
		<path class="st0" d="M250,495C114.9,495,5,385.1,5,250C5,114.9,114.9,5,250,5c135.1,0,245,109.9,245,245
			C495,385.1,385.1,495,250,495z M250,16.1C121,16.1,16.1,121,16.1,250S121,483.9,250,483.9S483.9,379,483.9,250S379,16.1,250,16.1z
			"/>
	</g>
	<g>
		<path class="st0" d="M389.2,168.7c-1.6-3.2-4.5-5.5-7.9-6.4l-38-9.8c-1-3.6-3.6-6.7-7.3-8.1l-40.3-16.2
			c-40.5-16.7-86.9-5.5-115.5,27.8c-2.1,2.4-2.8,5.6-2,8.5c0.1,0.7,0.3,1.5,0.7,2.2c1.8,3.4,4.9,5.7,8.7,6.4
			c0.8,0.2,1.5,0.2,2.3,0.2c3,0,5.8-1.1,8.1-3.1c14-12.2,33.2-16.7,51.4-12.2c1.9,0.4,3.5,1.7,4.4,3.5c0.9,1.7,1,3.7,0.3,5.5
			l-10,25.6v0c-1.1,2.8-1.1,5.7-0.2,8.5l-4.8,12c-0.3,0.7-0.5,1.5-0.7,2.3c0,0,0,0,0,0.1l-3.4,12.4l-8.9-5
			c-16.6-9.3-36.8-8.7-52.7,1.6L142.8,244c-4.3,2.8-9.2,4.2-14.3,4.2c-0.1,0-0.2,0-0.2,0c-3.5,0-7.2-0.2-11.1-0.4
			c-3.8-0.2-7.1,2.7-7.3,6.6c-0.2,3.8,2.7,7.1,6.6,7.3c4.1,0.2,7.9,0.3,11.7,0.4h0.4c7.7,0,15.3-2.2,21.8-6.4l30.3-19.4
			c11.7-7.5,26.4-7.9,38.5-1.1l34,19.2c0.2,0.2,0.5,0.3,0.8,0.4l11.1,6.3c1.7,1,2.1,4.6,1.6,7.7l-2.5,15.3c-0.4,2.2-0.4,4.4-0.2,6.7
			c0.5,4.6,0.6,9.2,0,13.7c-0.1,1.2-0.7,2.2-1.5,3c-0.2,0.1-0.3,0.2-0.5,0.4c-0.1,0.1-0.3,0.2-0.4,0.3c-1.4,0.7-3,0.8-4.4,0
			c-2-1-3.9-2.2-5.5-3.6c-0.1-0.1-0.2-0.2-0.3-0.3c-4.9-4.1-8.4-9.6-10-15.7c-0.1-0.4-0.2-0.9-0.3-1.3c-0.5-2.4-0.8-4.8-0.7-7.3
			c0.2-3.3,0.9-3.9,4.2-6.9l0.4-0.3c2.8-2.5,3.1-6.9,0.6-9.8c-2.5-2.8-6.9-3.1-9.8-0.6l-0.4,0.3c-3.7,3.3-7.5,6.7-8.6,14.2
			c-5.3-4.4-9.6-10.1-12.1-16.6c-1.4-3.5-5.4-5.3-9-3.9c-3.5,1.4-5.3,5.4-3.9,9c5,12.7,14.8,23.2,27,29.1c0.9,2.6,1.9,5.1,3.3,7.5
			c-3.7,0-7.4,0.1-11.2,0.4c0,0-0.1,0-0.2,0c0,0-0.1,0-0.2,0c-9.6,1.2-17.4,8.3-19.3,17.8c-0.8,3.7-0.5,7.4,0.5,10.9
			c-4.2,1.4-7.9,4.1-10.5,7.8c-5,7.1-5.2,16.7-0.5,24l0,0c0,0,0,0.1,0.1,0.1c0.1,0.2,0.2,0.3,0.3,0.4v0c7.2,9.3,17.4,15.6,28.7,18.1
			l-5.9,14.5c-0.7,1.7-1.9,3-3.6,3.7c-1.6,0.7-3.5,0.7-5.1,0.1l-15.2-6c-1.7-0.7-3-1.9-3.7-3.6c-0.7-1.6-0.7-3.5-0.1-5.1
			c0,0,0,0,0-0.1c0,0,0,0,0-0.1l4-10.7c1.3-3.6-0.5-7.6-4.1-8.9c-3.6-1.3-7.6,0.5-8.9,4.1l-1.4,3.7c-11.8-5.5-22.3-11.3-30.8-19.9
			c-5-5.1-11.2-8.7-18-10.7c0,0-0.1,0-0.2,0c0,0-0.1,0-0.2,0l-8.2-1.9c-3.7-0.9-7.4,1.5-8.3,5.2c-0.9,3.7,1.5,7.4,5.2,8.3l8,1.8
			c4.5,1.3,8.5,3.7,11.8,7c10.5,10.7,22.9,17.3,36.7,23.6c-0.4,8.5,4.6,16.8,12.9,20.1l15.2,6c2.5,1,5,1.4,7.5,1.4
			c8,0,15.6-4.7,18.9-12.4c8.2-0.7,16.1-3.5,23.1-8.1c8.3-5.5,14.6-13.3,18.3-22.4c0.2-0.5,0.3-1,0.4-1.5
			c11.4-2.8,21.5-9.9,27.6-19.7c3.2-5.1,4.6-11.1,4-16.9c8.9-4,15.2-12.3,16.6-22.5c0.8-6.1-0.3-12.3-3.3-17.8
			c-1-1.8-2.2-3.5-3.5-5.1c1.6-1.4,3-2.9,4.2-4.7c3.6-5.2,5.3-11.5,4.7-17.7c-1.3-13.3-12.1-23.4-25.1-23.7c0,0,0,0-0.1,0
			c0,0,0,0-0.1,0h0l-4.2,0l2.4-4.7c0,0,0,0,0-0.1c0.4-0.7,0.7-1.4,1-2.1l4.8-12c2.6-1.3,4.7-3.5,5.8-6.3c0,0,0,0,0,0l3.7-9v0
			c0,0,0,0,0,0c0.8-1.9,2.3-3.4,4.3-3.9l11.3-3.4c1.9-0.6,3.6-1.6,5-2.9l33.4,18c0.1,0,0.2,0.1,0.2,0.1c1.8,0.9,3.7,1.4,5.7,1.4
			c1.4,0,2.8-0.2,4.2-0.7c3.3-1.2,6-3.8,7.3-7.1l11.6-29.6c0,0,0,0,0,0C390.9,175.5,390.8,171.8,389.2,168.7z M340.6,166.1l35.6,9.2
			l-10.4,26.6l-32.4-17.5L340.6,166.1z M213.5,146c23-13.3,51.4-15.6,76.9-5h0h0l39,15.6l-11,27.8c-0.2,0.4-0.3,0.7-0.4,1.1
			l-0.4,1.1l-10.6,3.2c-6,1.8-10.8,6.1-13.1,12c0,0,0,0,0,0l-3.2,7.7l-33.4-13.1l9.5-24.2v0c2.2-5.5,1.9-11.7-0.9-16.9
			c-2.7-5.3-7.6-9.1-13.3-10.5C239.5,141.4,226,142,213.5,146z M232.2,386.3l3.2-8.1c0,0,0-0.1,0-0.1c0-0.1,0.1-0.3,0.2-0.4
			c0-0.1,0-0.2,0.1-0.3c0-0.1,0-0.2,0.1-0.4c0-0.1,0-0.2,0.1-0.4c0-0.1,0-0.2,0-0.3c0-0.1,0-0.3,0-0.4c0,0,0-0.1,0-0.1
			c0,0,0-0.1,0-0.1c0-0.2,0-0.3,0-0.4c0-0.1,0-0.2,0-0.3c0-0.1,0-0.2,0-0.4c0-0.1,0-0.2,0-0.3c0-0.1,0-0.2-0.1-0.3
			c0-0.1-0.1-0.2-0.1-0.4c0-0.1,0-0.2-0.1-0.2c0-0.1-0.1-0.2-0.1-0.4c0-0.1-0.1-0.2-0.1-0.2c0-0.1-0.1-0.2-0.2-0.4
			c0-0.1-0.1-0.2-0.2-0.2c0-0.1-0.1-0.2-0.2-0.3c-0.1-0.1-0.1-0.2-0.2-0.3c0-0.1-0.1-0.2-0.2-0.2c-0.1-0.1-0.2-0.2-0.2-0.3
			c0-0.1-0.1-0.1-0.2-0.2c-0.1-0.1-0.2-0.2-0.3-0.3c-0.1-0.1-0.1-0.1-0.2-0.2c-0.1-0.1-0.2-0.2-0.3-0.2c-0.1-0.1-0.2-0.1-0.2-0.2
			c-0.1-0.1-0.2-0.1-0.3-0.2c-0.1-0.1-0.2-0.1-0.3-0.2c-0.1,0-0.2-0.1-0.2-0.1c-0.1-0.1-0.2-0.1-0.4-0.2c0,0-0.1,0-0.1,0
			c0,0-0.1,0-0.1,0c-0.1,0-0.3-0.1-0.4-0.1c-0.1,0-0.2,0-0.3-0.1c-0.1,0-0.2,0-0.4-0.1c-0.1,0-0.2,0-0.4-0.1c-0.1,0-0.2,0-0.3,0
			c-0.1,0-0.3,0-0.4,0c0,0-0.1,0-0.2,0c-10.8-0.2-20.8-5.2-27.5-13.7c-1.6-2.6-1.5-5.9,0.3-8.3c1.8-2.5,5-3.7,8-3l37.6,10.7
			c2.7,0.8,4.8,2.3,6,4.4c0.8,1.4,1.2,3,1.2,4.6v0.4c0,0.9-0.2,1.7-0.4,2.5c-0.1,0.2-0.1,0.4-0.2,0.7
			C250,376.4,241.9,383.4,232.2,386.3z M267.1,355.3c-0.4-1.1-0.9-2.2-1.5-3.2c-3-5.3-8-9.3-14.3-11l-33.5-9.5
			c-2.8-2-4.3-5.4-3.6-8.8c0.7-3.6,3.7-6.3,7.3-6.8c7.4-0.5,14.8-0.4,22.5,0.3c2.1,1.5,4.3,2.9,6.6,4.1c0,0,0,0,0.1,0
			c0.1,0,0.2,0.1,0.3,0.1c2.5,1.2,5.2,1.8,8,1.8c2.9,0,5.7-0.7,8.4-2c3.3,0.8,6.6,1.7,9.6,2.7c3.8,1.3,6.8,4.2,8.1,8.1
			c1.3,3.8,0.9,7.9-1.3,11.4C280.1,348.5,274.1,353,267.1,355.3z M302.5,308.4c-0.7,5-3.6,9.1-7.8,11.3c-3.3-4.6-7.9-8-13.3-9.9
			c-1.5-0.5-3-1-4.5-1.4c0.2-0.9,0.4-1.7,0.5-2.6c0.7-5.5,0.7-11.2,0-17c0,0,0-0.1,0-0.1c5.7,0.5,11.2,1.8,16.5,4
			C299.9,295.5,303.4,302,302.5,308.4z M304.5,266.4c0.5,5.5-2.6,10.6-7.5,12.7c-5.7-2.1-11.6-3.5-17.6-4l0.7-4.2
			c1-5.9,0.2-11.4-2.2-15.6l15-0.1C298.9,255.3,303.9,260.1,304.5,266.4z M258.6,241.5L247,235l4.4-15.7v0c0,0,0,0,0-0.1
			c0.1-0.3,0.2-0.6,0.3-0.8l3.2-8l27.7,10.9l-3.2,8.1c-0.1,0.3-0.2,0.5-0.4,0.8c0,0,0,0,0,0.1c0,0,0,0,0,0.1l-5.8,11.1L258.6,241.5z
			"/>
	</g>
</g>
</svg>
