<?xml version="1.0" encoding="utf-8"?>
<!-- Generator: Adobe Illustrator 22.1.0, SVG Export Plug-In . SVG Version: 6.00 Build 0)  -->
<svg version="1.1" id="Layer_1" xmlns="http://www.w3.org/2000/svg" xmlns:xlink="http://www.w3.org/1999/xlink" x="0px" y="0px"
	 viewBox="0 0 500 500" style="enable-background:new 0 0 500 500;" xml:space="preserve">
<style type="text/css">
	.st0{fill:url(#SVGID_1_);}
</style>
<linearGradient id="SVGID_1_" gradientUnits="userSpaceOnUse" x1="26.3333" y1="250" x2="473.6667" y2="250">
	<stop  offset="0" style="stop-color:#FF626B"/>
	<stop  offset="1" style="stop-color:#F6AE04"/>
</linearGradient>
<path class="st0" d="M471.6,93c-2.5-5.1-7.1-8.8-12.6-10.2l-60.5-15.6c-1.6-5.7-5.8-10.6-11.7-13l-64.2-25.7
	C258,1.8,184.1,19.6,138.4,72.8c-3.3,3.8-4.4,8.9-3.2,13.6c0.2,1.2,0.5,2.3,1.1,3.4c2.8,5.4,7.8,9.1,13.8,10.2
	c1.2,0.3,2.5,0.3,3.7,0.3c4.7,0,9.3-1.7,12.9-4.9c22.3-19.4,53-26.7,82-19.5c3,0.7,5.5,2.7,6.9,5.5c1.4,2.7,1.6,6,0.5,8.8l-16,40.8
	v0.1c-1.8,4.4-1.8,9.1-0.3,13.6l-7.7,19.2c-0.5,1.2-0.8,2.4-1.2,3.6c0,0.1,0,0.1-0.1,0.1l-5.4,19.7l-14.2-8
	c-26.4-14.8-58.6-13.9-84.1,2.5L78.9,213c-6.8,4.4-14.7,6.7-22.8,6.7c-0.1,0-0.3,0-0.4,0c-5.6-0.1-11.4-0.3-17.6-0.6
	c-6.1-0.3-11.3,4.3-11.6,10.4c-0.3,6.1,4.3,11.3,10.4,11.6c6.6,0.3,12.6,0.5,18.6,0.6h0.6c12.3,0,24.3-3.5,34.7-10.2l48.3-30.9
	c18.6-11.9,42.1-12.6,61.4-1.8l54.2,30.6c0.4,0.3,0.8,0.5,1.3,0.7l17.7,10c2.7,1.6,3.3,7.3,2.5,12.3l-4,24.3
	c-0.6,3.5-0.6,7.1-0.3,10.6c0.8,7.4,0.9,14.7,0,21.8c-0.2,1.9-1.1,3.6-2.5,4.7c-0.3,0.2-0.5,0.4-0.8,0.6c-0.2,0.1-0.5,0.3-0.7,0.5
	c-2.2,1.2-4.8,1.2-7,0.1c-3.2-1.6-6.2-3.5-8.8-5.7c-0.2-0.1-0.3-0.3-0.5-0.5c-7.8-6.5-13.4-15.2-16-25.1c-0.1-0.7-0.3-1.4-0.5-2.1
	c-0.8-3.8-1.2-7.7-1.2-11.6c0.4-5.3,1.4-6.2,6.7-11l0.6-0.5c4.5-4,5-11,0.9-15.6c-4-4.5-11-5-15.6-0.9l-0.6,0.5
	c-5.9,5.3-12,10.6-13.8,22.6c-8.5-7-15.2-16.1-19.3-26.4c-2.3-5.6-8.6-8.4-14.3-6.2c-5.6,2.3-8.4,8.6-6.2,14.3
	c8,20.2,23.5,36.9,43,46.4c1.4,4.2,3,8.1,5.2,11.9c-6,0-11.9,0.2-17.8,0.6c-0.1,0-0.2,0-0.3,0.1c-0.1,0-0.2,0-0.3,0
	c-15.3,1.9-27.7,13.3-30.8,28.4c-1.2,5.9-0.8,11.9,0.8,17.3c-6.6,2.3-12.5,6.5-16.7,12.5c-8,11.3-8.4,26.7-0.8,38.3l0.1,0.1
	c0.1,0.1,0.1,0.1,0.1,0.2c0.1,0.3,0.3,0.5,0.5,0.6v0.1c11.5,14.9,27.7,24.9,45.7,28.9l-9.5,23.1c-1,2.7-3,4.7-5.7,5.9
	c-2.6,1.1-5.5,1.2-8.2,0.1l-24.3-9.6c-2.7-1-4.7-3-5.9-5.7c-1.1-2.6-1.2-5.5-0.1-8.2c0-0.1,0-0.1,0.1-0.1c0-0.1,0.1-0.1,0.1-0.1
	l6.4-17.1c2.1-5.7-0.8-12.1-6.5-14.1c-5.7-2.1-12.1,0.8-14.1,6.5l-2.2,6c-18.7-8.8-35.5-18-49-31.8c-7.9-8.1-17.8-13.9-28.7-17
	c-0.1,0-0.2-0.1-0.3-0.1s-0.2-0.1-0.3-0.1l-13-3c-6-1.4-11.9,2.3-13.2,8.3c-1.4,6,2.4,11.9,8.3,13.2l12.7,2.9
	c7.1,2,13.6,5.8,18.7,11.2c16.8,17,36.5,27.6,58.4,37.7c-0.6,13.6,7.3,26.7,20.6,32l24.3,9.6c4,1.6,8,2.3,12,2.3
	c12.7,0,24.8-7.5,30.1-19.8c13.1-1.1,25.7-5.5,36.8-12.9c13.2-8.8,23.2-21.1,29.2-35.7c0.3-0.8,0.5-1.6,0.6-2.3
	c18.2-4.4,34.2-15.8,44-31.5c5.1-8.2,7.3-17.6,6.4-27c14.1-6.4,24.3-19.7,26.5-35.8c1.3-9.8-0.5-19.7-5.3-28.3
	c-1.6-2.9-3.5-5.6-5.6-8.1c2.5-2.2,4.8-4.7,6.7-7.5c5.8-8.2,8.4-18.3,7.5-28.3c-2.1-21.1-19.3-37.4-40.1-37.8c-0.1,0-0.1,0-0.1,0
	s-0.1,0-0.1,0h-0.1l-6.6,0.1l3.9-7.5c0-0.1,0.1-0.1,0.1-0.1c0.6-1.1,1.1-2.2,1.6-3.4l7.6-19.1c4.2-2.1,7.5-5.6,9.3-10.1
	c0-0.1,0-0.1,0.1-0.1l5.9-14.3v-0.1c0,0,0-0.1,0.1-0.1c1.2-3.1,3.7-5.4,6.9-6.3l18-5.4c3-0.9,5.7-2.5,8-4.6l53.3,28.7
	c0.1,0.1,0.3,0.1,0.4,0.2c2.9,1.4,5.9,2.2,9,2.2c2.3,0,4.5-0.4,6.7-1.2c5.3-1.9,9.5-6,11.6-11.3l18.5-47.2c0,0,0,0,0-0.1
	C474.4,103.9,474.1,98,471.6,93z M394.1,88.8l56.7,14.7l-16.5,42.4L382.6,118L394.1,88.8z M191.6,56.8c36.7-21.1,81.9-24.8,122.5-8
	h0.1h0.1l62.1,24.9l-17.6,44.4c-0.3,0.6-0.5,1.2-0.7,1.8l-0.6,1.7l-16.9,5.1c-9.6,2.9-17.2,9.8-21,19.1c0,0,0,0.1-0.1,0.1l-5.1,12.3
	l-53.2-20.9l15.1-38.6v-0.1c3.4-8.8,3-18.6-1.4-27c-4.3-8.4-12.1-14.5-21.2-16.8C233,49.5,211.4,50.4,191.6,56.8z M221.4,439.9
	l5.1-12.9c0-0.1,0.1-0.1,0.1-0.2c0.1-0.2,0.1-0.5,0.3-0.6c0.1-0.1,0.1-0.3,0.1-0.5c0.1-0.2,0.1-0.4,0.1-0.6c0.1-0.2,0.1-0.4,0.1-0.6
	c0-0.1,0.1-0.3,0.1-0.5c0-0.2,0.1-0.5,0.1-0.6c0-0.1,0-0.1,0-0.2s0-0.1,0-0.2c0-0.3,0-0.5,0-0.7c0-0.1,0-0.3,0-0.5
	c0-0.2-0.1-0.4-0.1-0.6c0-0.2-0.1-0.3-0.1-0.5c0-0.1-0.1-0.3-0.1-0.5c-0.1-0.2-0.1-0.4-0.1-0.6c-0.1-0.1-0.1-0.3-0.1-0.4
	c-0.1-0.2-0.1-0.4-0.2-0.6c-0.1-0.1-0.1-0.3-0.2-0.4c-0.1-0.2-0.2-0.4-0.3-0.6c-0.1-0.1-0.1-0.3-0.3-0.4c-0.1-0.2-0.2-0.3-0.3-0.5
	s-0.2-0.3-0.3-0.5c-0.1-0.1-0.2-0.3-0.3-0.4c-0.1-0.1-0.3-0.3-0.4-0.5c-0.1-0.1-0.2-0.2-0.3-0.3c-0.1-0.1-0.3-0.3-0.5-0.5
	c-0.1-0.1-0.2-0.2-0.3-0.3c-0.1-0.1-0.3-0.3-0.5-0.4c-0.1-0.1-0.3-0.2-0.4-0.3s-0.3-0.2-0.5-0.3c-0.2-0.1-0.3-0.2-0.5-0.3
	c-0.1-0.1-0.3-0.1-0.4-0.2c-0.2-0.1-0.4-0.2-0.6-0.3c-0.1,0-0.1-0.1-0.2-0.1c-0.1,0-0.1-0.1-0.2-0.1c-0.2-0.1-0.5-0.1-0.6-0.2
	c-0.1-0.1-0.3-0.1-0.5-0.1c-0.2-0.1-0.4-0.1-0.6-0.1c-0.2-0.1-0.4-0.1-0.6-0.1c-0.1,0-0.3-0.1-0.5-0.1c-0.2,0-0.5-0.1-0.6-0.1
	c-0.1,0-0.1,0-0.3,0c-17.2-0.4-33.1-8.4-43.8-21.8c-2.5-4.1-2.4-9.4,0.5-13.3c2.9-4,8-5.9,12.7-4.7l59.9,17c4.3,1.2,7.7,3.7,9.5,7.1
	c1.2,2.3,1.9,4.7,1.9,7.3v0.6c0,1.4-0.3,2.7-0.6,4c-0.1,0.3-0.2,0.7-0.3,1C249.7,424.2,236.8,435.3,221.4,439.9z M277,390.5
	c-0.6-1.8-1.4-3.4-2.3-5.1c-4.7-8.5-12.8-14.8-22.8-17.6l-53.4-15.2c-4.5-3.1-6.8-8.6-5.7-14.1c1.2-5.8,5.8-10.1,11.6-10.9
	c11.8-0.8,23.6-0.6,35.8,0.5c3.3,2.5,6.8,4.6,10.4,6.5c0.1,0,0.1,0.1,0.1,0.1c0.1,0.1,0.3,0.1,0.5,0.2c4,1.9,8.4,2.9,12.8,2.9
	c4.6,0,9.1-1.1,13.4-3.2c5.2,1.3,10.4,2.7,15.3,4.3c6.1,2.1,10.8,6.7,13,12.8c2.1,6.1,1.4,12.6-2,18.2
	C297.7,379.6,288.1,386.9,277,390.5z M333.4,315.8c-1,7.9-5.8,14.5-12.4,18c-5.2-7.3-12.5-12.8-21.2-15.8c-2.3-0.8-4.7-1.6-7.1-2.2
	c0.4-1.4,0.6-2.7,0.8-4.2c1-8.8,1-17.9,0-27c0-0.1,0-0.1,0-0.2c9.1,0.8,17.9,2.9,26.3,6.4C329.3,295.2,334.8,305.5,333.4,315.8z
	 M336.6,248.7c0.8,8.7-4.2,16.9-12,20.3c-9-3.4-18.4-5.5-28-6.4l1.1-6.7c1.6-9.5,0.3-18.2-3.5-24.9l23.9-0.1
	C327.7,231,335.6,238.7,336.6,248.7z M263.4,209L245,198.7l6.9-25v-0.1c0-0.1,0-0.1,0.1-0.1c0.1-0.5,0.3-0.9,0.5-1.3l5.1-12.8
	l44.2,17.4l-5.1,12.8c-0.2,0.5-0.4,0.8-0.6,1.2c0,0.1-0.1,0.1-0.1,0.1c0,0.1-0.1,0.1-0.1,0.1l-9.2,17.8L263.4,209z"/>
</svg>
