<?xml version="1.0" encoding="utf-8"?>
<!-- Generator: Adobe Illustrator 22.1.0, SVG Export Plug-In . SVG Version: 6.00 Build 0)  -->
<svg version="1.1" id="Layer_1" xmlns="http://www.w3.org/2000/svg" xmlns:xlink="http://www.w3.org/1999/xlink" x="0px" y="0px"
	 viewBox="0 0 500 500" style="enable-background:new 0 0 500 500;" xml:space="preserve">
<style type="text/css">
	.st0{fill:#006837;}
	.st1{fill:#FFFFFF;}
</style>
<g>
	<g>
		<path class="st0" d="M250,495.7C114.5,495.7,4.3,385.5,4.3,250C4.3,114.5,114.5,4.3,250,4.3c135.5,0,245.7,110.2,245.7,245.7
			C495.7,385.5,385.5,495.7,250,495.7z"/>
	</g>
	<g>
		<g>
			<g>
				<path class="st1" d="M224.4,296.8c-3-2.2-7.1-1.6-9.3,1.3c-11.1,14.7-27.9,23.1-46.3,23.1h-18.3c-3.7,0-6.6,3-6.6,6.6
					c0,3.7,3,6.6,6.6,6.6h18.3c11.4,0,22.2-2.6,32.3-7.7c9.6-4.9,18.1-12,24.6-20.7C227.9,303.2,227.3,299,224.4,296.8z"/>
			</g>
			<g>
				<path class="st1" d="M243.1,203.4c1.2,0.9,2.7,1.4,4.1,1.4c2,0,3.9-0.9,5.3-2.6c11.1-14.3,27.7-22.4,45.7-22.4h38.6l-20.6,20.6
					c-2.6,2.6-2.6,6.8,0,9.4c1.3,1.3,3,2,4.7,2c1.7,0,3.4-0.6,4.7-2l32-32c2.6-2.6,2.6-6.8,0-9.4l-32-32c-2.6-2.6-6.8-2.6-9.4,0
					s-2.6,6.8,0,9.4l20.6,20.6h-38.6c-22.1,0-42.6,10-56.3,27.6C239.7,197,240.2,201.2,243.1,203.4z"/>
			</g>
			<g>
				<path class="st1" d="M325.6,291.2c-2.6-2.6-6.8-2.6-9.4,0s-2.6,6.8,0,9.4l20.6,20.6h-38.6c-31.9,0-57.9-26-57.9-57.9v-25.6
					c0-39.2-31.9-71.2-71.2-71.2h-18.3c-3.7,0-6.6,3-6.6,6.6s3,6.6,6.6,6.6h18.3c31.9,0,57.9,26,57.9,57.9v25.6
					c0,39.2,31.9,71.2,71.2,71.2h38.6L316.2,355c-2.6,2.6-2.6,6.8,0,9.4c1.3,1.3,3,2,4.7,2s3.4-0.6,4.7-2l32-32
					c2.6-2.6,2.6-6.8,0-9.4L325.6,291.2z"/>
			</g>
		</g>
	</g>
</g>
</svg>
