<?xml version="1.0" encoding="utf-8"?>
<!-- Generator: Adobe Illustrator 22.1.0, SVG Export Plug-In . SVG Version: 6.00 Build 0)  -->
<svg version="1.1" id="Layer_1" xmlns="http://www.w3.org/2000/svg" xmlns:xlink="http://www.w3.org/1999/xlink" x="0px" y="0px"
	 viewBox="0 0 500 500" style="enable-background:new 0 0 500 500;" xml:space="preserve">
<style type="text/css">
	.st0{fill:url(#SVGID_1_);}
</style>
<g>
	<g>
		<g>
			<linearGradient id="SVGID_1_" gradientUnits="userSpaceOnUse" x1="34.0372" y1="250" x2="485" y2="250">
				<stop  offset="0" style="stop-color:#FF626B"/>
				<stop  offset="1" style="stop-color:#F6AE04"/>
			</linearGradient>
			<path class="st0" d="M461,12.2c-0.7-2.4-2.3-4.4-4.5-5.6l0,0c-4.3-2.3-9.7-0.6-12,3.7c0,0,0,0,0,0c0,0.2-45,87.6-183.3,102.9
				c-18,1.9-35.7,6.6-52.3,13.9c-29.7,12.9-54.2,35.4-69.7,63.9c-14.4,26.7-20.4,57.2-17.1,87.4c2.4,22,9.8,43.2,21.5,62
				c-24.6,17.6-102.5,78.6-109.5,144c-0.5,4.9,3,9.3,7.9,9.8c4.9,0.5,9.3-3,9.8-7.9c6.4-58.4,79.5-115,102.3-131.4
				c27.4,33.6,68.3,52.6,112.3,55.7c29.6,1.9,59.2-3.1,86.5-14.7c29.6-12.4,55.8-31.9,76.2-56.6C481.8,275.4,506.9,168,461,12.2z
				 M159.2,331.7L159.2,331.7c-3.4-5.3-6.4-10.9-8.9-16.7c-5.4-12.2-8.9-25.2-10.3-38.4c-3-26.6,2.1-53.5,14.7-77.1
				c13.6-25,35.2-44.8,61.4-56.1c15-6.5,30.8-10.7,47.1-12.3c91.3-9.8,145-50.4,172.7-79.9c-16.3,53.6-44.3,102.9-82,144.3
				l-5.4-54.4c-0.3-4.9-4.5-8.7-9.4-8.4c-4.9,0.3-8.7,4.5-8.4,9.4c0,0.2,0,0.5,0.1,0.7l6.9,69.9
				C296.3,254.5,238.9,296.6,159.2,331.7z M415.4,327.8L415.4,327.8c-18.6,22.7-42.4,40.4-69.4,51.8c-24.8,10.5-51.7,15-78.6,13.2
				c-37.4-1.9-72.5-18.6-97.5-46.5c29.3-13,57.6-28,84.8-45l78.1,14.7c4.9,0.8,9.4-2.6,10.2-7.4c0.7-4.7-2.3-9.1-7-10.1l-60-11.3
				c27.7-19,53.5-40.7,77-64.7c0.4-0.4,0.8-0.8,1.2-1.2c62-64.5,88.4-128.4,99.4-167.7C483.8,183,460.6,273.1,415.4,327.8z"/>
		</g>
	</g>
</g>
</svg>
