<?xml version="1.0" encoding="utf-8"?>
<!-- Generator: Adobe Illustrator 22.1.0, SVG Export Plug-In . SVG Version: 6.00 Build 0)  -->
<svg version="1.1" id="Layer_1" xmlns="http://www.w3.org/2000/svg" xmlns:xlink="http://www.w3.org/1999/xlink" x="0px" y="0px"
	 viewBox="0 0 500 500" style="enable-background:new 0 0 500 500;" xml:space="preserve">
<style type="text/css">
	.st0{fill:#39B54A;}
	.st1{fill:#FFFFFF;}
</style>
<g>
	<g>
		<path class="st0" d="M250,493.7C115.6,493.7,6.3,384.4,6.3,250C6.3,115.6,115.6,6.3,250,6.3c134.4,0,243.7,109.3,243.7,243.7
			C493.7,384.4,384.4,493.7,250,493.7z"/>
	</g>
	<g>
		<g>
			<g>
				<path class="st1" d="M351.6,133.2c-0.3-1.2-1.1-2.2-2.2-2.8l0,0c-2.2-1.1-4.8-0.3-6,1.8c0,0,0,0,0,0c0,0.1-22.5,43.7-91.4,51.3
					c-9,1-17.8,3.3-26.1,7c-14.8,6.4-27.1,17.7-34.8,31.9c-7.2,13.3-10.2,28.5-8.6,43.6c1.2,11,4.9,21.6,10.7,30.9
					c-12.3,8.8-51.1,39.2-54.6,71.8c-0.3,2.4,1.5,4.6,3.9,4.9c2.4,0.3,4.6-1.5,4.9-3.9c3.2-29.1,39.7-57.4,51-65.6
					c13.6,16.8,34.1,26.2,56,27.8c14.8,1,29.5-1.6,43.1-7.4c14.8-6.2,27.8-15.9,38-28.3C362,264.5,374.5,210.9,351.6,133.2z
					 M201.1,292.6L201.1,292.6c-1.7-2.7-3.2-5.4-4.5-8.3c-2.7-6.1-4.4-12.5-5.1-19.2c-1.5-13.3,1.1-26.7,7.4-38.5
					c6.8-12.5,17.6-22.4,30.6-28c7.5-3.2,15.4-5.3,23.5-6.2c45.5-4.9,72.3-25.2,86.1-39.9c-8.1,26.7-22.1,51.3-40.9,72l-2.7-27.1
					c-0.1-2.4-2.2-4.3-4.7-4.2c-2.4,0.1-4.3,2.2-4.2,4.7c0,0.1,0,0.2,0,0.4l3.5,34.9C269.4,254.1,240.8,275.1,201.1,292.6z
					 M328.8,290.6L328.8,290.6c-9.3,11.3-21.1,20.2-34.6,25.9c-12.4,5.2-25.8,7.5-39.2,6.6c-18.7-0.9-36.2-9.3-48.6-23.2
					c14.6-6.5,28.7-14,42.3-22.5l38.9,7.4c2.4,0.4,4.7-1.3,5.1-3.7c0.4-2.3-1.2-4.5-3.5-5l-29.9-5.7c13.8-9.5,26.7-20.3,38.4-32.3
					c0.2-0.2,0.4-0.4,0.6-0.6c30.9-32.2,44.1-64,49.6-83.7C363,218.4,351.4,263.3,328.8,290.6z"/>
			</g>
		</g>
	</g>
</g>
</svg>
