<?xml version="1.0" encoding="utf-8"?>
<!-- Generator: Adobe Illustrator 22.1.0, SVG Export Plug-In . SVG Version: 6.00 Build 0)  -->
<svg version="1.1" id="Layer_1" xmlns="http://www.w3.org/2000/svg" xmlns:xlink="http://www.w3.org/1999/xlink" x="0px" y="0px"
	 viewBox="0 0 500 500" style="enable-background:new 0 0 500 500;" xml:space="preserve">
<style type="text/css">
	.st0{fill:#FFFFFF;}
</style>
<g>
	<g>
		<path class="st0" d="M310,72.6l-16.5-4.5c-2.1-0.7-4.2-0.5-6.2,0.7c-2,1.2-3.4,2.9-4.1,5.2l-99.1,342.9c-0.7,2.3-0.5,4.5,0.7,6.5
			c1.2,2,2.9,3.4,5.2,4.1l16.5,4.5c2.1,0.7,4.2,0.5,6.2-0.7c2-1.2,3.4-2.9,4.1-5.2l99.1-342.9c0.7-2.3,0.5-4.5-0.7-6.5
			C314,74.7,312.3,73.3,310,72.6z"/>
		<path class="st0" d="M161.6,139.5c0-2.3-0.9-4.3-2.7-6.1l-13.3-13.3c-1.8-1.8-3.8-2.7-6.1-2.7s-4.3,0.9-6.1,2.7L9.7,243.9
			C7.9,245.7,7,247.7,7,250s0.9,4.3,2.7,6.1l123.8,123.8c1.8,1.8,3.8,2.7,6.1,2.7s4.3-0.9,6.1-2.7l13.3-13.3
			c1.8-1.8,2.7-3.8,2.7-6.1c0-2.3-0.9-4.3-2.7-6.1L54.5,250l104.4-104.4C160.7,143.9,161.6,141.8,161.6,139.5z"/>
		<path class="st0" d="M490.3,243.9L366.6,120.1c-1.8-1.8-3.8-2.7-6.1-2.7c-2.3,0-4.3,0.9-6.1,2.7l-13.3,13.3
			c-1.8,1.8-2.7,3.8-2.7,6.1s0.9,4.3,2.7,6.1L445.5,250L341.1,354.4c-1.8,1.8-2.7,3.8-2.7,6.1c0,2.3,0.9,4.3,2.7,6.1l13.3,13.3
			c1.8,1.8,3.8,2.7,6.1,2.7c2.3,0,4.3-0.9,6.1-2.7l123.8-123.8c1.8-1.8,2.7-3.8,2.7-6.1C493,247.7,492.1,245.7,490.3,243.9z"/>
	</g>
</g>
</svg>
