<?xml version="1.0" encoding="utf-8"?>
<!-- Generator: Adobe Illustrator 22.1.0, SVG Export Plug-In . SVG Version: 6.00 Build 0)  -->
<svg version="1.1" id="Layer_1" xmlns="http://www.w3.org/2000/svg" xmlns:xlink="http://www.w3.org/1999/xlink" x="0px" y="0px"
	 viewBox="0 0 500 500" style="enable-background:new 0 0 500 500;" xml:space="preserve">
<style type="text/css">
	.st0{fill:#F7931E;}
	.st1{fill:#FFFFFF;}
</style>
<g>
	<g>
		<path class="st0" d="M250,494.3C115.3,494.3,5.7,384.7,5.7,250C5.7,115.3,115.3,5.7,250,5.7S494.3,115.3,494.3,250
			C494.3,384.7,384.7,494.3,250,494.3z"/>
	</g>
	<g>
		<g>
			<path class="st1" d="M119.6,311.2c2.3,0,4.2-1.9,4.2-4.2V184.3h248.9v46.3c0,2.3,1.9,4.2,4.2,4.2c2.3,0,4.2-1.9,4.2-4.2v-83.2
				c0-14.1-11.5-25.6-25.6-25.6h-11v-5.2c0-5.6-4.6-10.2-10.2-10.2h-7.8c-5.6,0-10.2,4.6-10.2,10.2v5.2h-27.9v-5.2
				c0-5.6-4.6-10.2-10.2-10.2h-7.8c-5.6,0-10.2,4.6-10.2,10.2v5.2H232v-5.2c0-5.6-4.6-10.2-10.2-10.2h-7.8
				c-5.6,0-10.2,4.6-10.2,10.2v5.2h-27.9v-5.2c0-5.6-4.6-10.2-10.2-10.2h-7.8c-5.6,0-10.2,4.6-10.2,10.2v5.2H141
				c-14.1,0-25.6,11.5-25.6,25.6V307C115.3,309.3,117.2,311.2,119.6,311.2z M324.5,116.6c0-1,0.8-1.8,1.8-1.8h7.8
				c1,0,1.8,0.8,1.8,1.8V137c0,1-0.8,1.8-1.8,1.8h-7.8c-1,0-1.8-0.8-1.8-1.8V116.6z M268.3,116.6c0-1,0.8-1.8,1.8-1.8h7.8
				c1,0,1.8,0.8,1.8,1.8V137c0,1-0.8,1.8-1.8,1.8h-7.8c-1,0-1.8-0.8-1.8-1.8V116.6z M212.1,116.6c0-1,0.8-1.8,1.8-1.8h7.8
				c1,0,1.8,0.8,1.8,1.8V137c0,1-0.8,1.8-1.8,1.8h-7.8c-1,0-1.8-0.8-1.8-1.8V116.6z M155.9,116.6c0-1,0.8-1.8,1.8-1.8h7.8
				c1,0,1.8,0.8,1.8,1.8V137c0,1-0.8,1.8-1.8,1.8h-7.8c-1,0-1.8-0.8-1.8-1.8V116.6z M141,130.2h6.5v6.8c0,5.6,4.6,10.2,10.2,10.2
				h7.8c5.6,0,10.2-4.6,10.2-10.2v-6.8h27.9v6.8c0,5.6,4.6,10.2,10.2,10.2h7.8c5.6,0,10.2-4.6,10.2-10.2v-6.8h27.9v6.8
				c0,5.6,4.6,10.2,10.2,10.2h7.8c5.6,0,10.2-4.6,10.2-10.2v-6.8h27.9v6.8c0,5.6,4.6,10.2,10.2,10.2h7.8c5.6,0,10.2-4.6,10.2-10.2
				v-6.8h11c9.5,0,17.2,7.7,17.2,17.2v28.5H123.8v-28.5C123.8,137.9,131.5,130.2,141,130.2z"/>
		</g>
		<g>
			<path class="st1" d="M163,350.4h-36.7c-1.4,0-2.5-1.1-2.5-2.5v-21.7c0-2.3-1.9-4.2-4.2-4.2c-2.3,0-4.2,1.9-4.2,4.2v21.7
				c0,6,4.9,11,11,11H163c2.3,0,4.2-1.9,4.2-4.2C167.2,352.3,165.4,350.4,163,350.4z"/>
		</g>
		<g>
			<path class="st1" d="M162.9,196.6h-14.6c-2.3,0-4.2,1.9-4.2,4.2c0,2.3,1.9,4.2,4.2,4.2h14.6c2.3,0,4.2-1.9,4.2-4.2
				C167.1,198.5,165.2,196.6,162.9,196.6z"/>
		</g>
		<g>
			<path class="st1" d="M193.2,205h14.6c2.3,0,4.2-1.9,4.2-4.2c0-2.3-1.9-4.2-4.2-4.2h-14.6c-2.3,0-4.2,1.9-4.2,4.2
				C189,203.2,190.9,205,193.2,205z"/>
		</g>
		<g>
			<path class="st1" d="M238.2,205h14.6c2.3,0,4.2-1.9,4.2-4.2c0-2.3-1.9-4.2-4.2-4.2h-14.6c-2.3,0-4.2,1.9-4.2,4.2
				C234,203.2,235.9,205,238.2,205z"/>
		</g>
		<g>
			<path class="st1" d="M283.2,205h14.6c2.3,0,4.2-1.9,4.2-4.2c0-2.3-1.9-4.2-4.2-4.2h-14.6c-2.3,0-4.2,1.9-4.2,4.2
				C279,203.2,280.9,205,283.2,205z"/>
		</g>
		<g>
			<path class="st1" d="M342.9,196.6h-14.6c-2.3,0-4.2,1.9-4.2,4.2c0,2.3,1.9,4.2,4.2,4.2h14.6c2.3,0,4.2-1.9,4.2-4.2
				C347.1,198.5,345.2,196.6,342.9,196.6z"/>
		</g>
		<g>
			<path class="st1" d="M162.9,217.8h-14.6c-2.3,0-4.2,1.9-4.2,4.2c0,2.3,1.9,4.2,4.2,4.2h14.6c2.3,0,4.2-1.9,4.2-4.2
				C167.1,219.7,165.2,217.8,162.9,217.8z"/>
		</g>
		<g>
			<path class="st1" d="M193.2,226.2h14.6c2.3,0,4.2-1.9,4.2-4.2c0-2.3-1.9-4.2-4.2-4.2h-14.6c-2.3,0-4.2,1.9-4.2,4.2
				C189,224.3,190.9,226.2,193.2,226.2z"/>
		</g>
		<g>
			<path class="st1" d="M238.2,226.2h14.6c2.3,0,4.2-1.9,4.2-4.2c0-2.3-1.9-4.2-4.2-4.2h-14.6c-2.3,0-4.2,1.9-4.2,4.2
				C234,224.3,235.9,226.2,238.2,226.2z"/>
		</g>
		<g>
			<path class="st1" d="M283.2,226.2h14.6c2.3,0,4.2-1.9,4.2-4.2c0-2.3-1.9-4.2-4.2-4.2h-14.6c-2.3,0-4.2,1.9-4.2,4.2
				C279,224.3,280.9,226.2,283.2,226.2z"/>
		</g>
		<g>
			<path class="st1" d="M342.9,217.8h-14.6c-2.3,0-4.2,1.9-4.2,4.2c0,2.3,1.9,4.2,4.2,4.2h14.6c2.3,0,4.2-1.9,4.2-4.2
				C347.1,219.7,345.2,217.8,342.9,217.8z"/>
		</g>
		<g>
			<path class="st1" d="M193.3,308.9l21.7,21.7c3.1,3.1,7.3,4.9,11.7,4.9c4.4,0,8.6-1.7,11.7-4.9l59.3-59.3c6.5-6.5,6.5-17,0-23.5
				c-6.5-6.5-17-6.5-23.5,0l-47.6,47.6l-9.9-9.9c-6.5-6.5-17-6.5-23.5,0C186.9,291.9,186.9,302.4,193.3,308.9z M199.3,291.4
				c1.6-1.6,3.7-2.4,5.8-2.4s4.2,0.8,5.8,2.4l12.9,12.9c1.6,1.6,4.3,1.6,6,0l50.6-50.6c3.2-3.2,8.4-3.2,11.5,0
				c3.2,3.2,3.2,8.4,0,11.5l-59.3,59.3c-1.5,1.5-3.6,2.4-5.8,2.4s-4.2-0.8-5.8-2.4l-21.7-21.7C196.1,299.8,196.1,294.6,199.3,291.4z
				"/>
		</g>
		<g>
			<path class="st1" d="M381.1,283.4v-33.6c0-2.3-1.9-4.2-4.2-4.2c-2.3,0-4.2,1.9-4.2,4.2v28.2c-7.7-4-16.4-6.2-25.6-6.2
				c-30.8,0-55.9,25.1-55.9,55.9c0,8.1,1.7,15.7,4.8,22.7H182.2c-2.3,0-4.2,1.9-4.2,4.2c0,2.3,1.9,4.2,4.2,4.2h118.4
				c10,14.9,27.1,24.8,46.4,24.8c30.8,0,55.9-25.1,55.9-55.9C402.9,309.7,394.3,293.7,381.1,283.4z M347,375.2
				c-26.2,0-47.5-21.3-47.5-47.5s21.3-47.5,47.5-47.5s47.5,21.3,47.5,47.5S373.2,375.2,347,375.2z"/>
		</g>
		<g>
			<path class="st1" d="M347,286.3c-22.8,0-41.4,18.6-41.4,41.4c0,22.8,18.6,41.4,41.4,41.4s41.4-18.6,41.4-41.4
				C388.4,304.9,369.8,286.3,347,286.3z M350.8,360.4c0.3-0.6,0.4-1.2,0.4-1.9v-5.1c0-2.3-1.9-4.2-4.2-4.2c-2.3,0-4.2,1.9-4.2,4.2
				v5.1c0,0.7,0.2,1.3,0.4,1.9c-15.2-1.7-27.2-13.8-29-29c0.6,0.3,1.2,0.4,1.9,0.4h5.1c2.3,0,4.2-1.9,4.2-4.2c0-2.3-1.9-4.2-4.2-4.2
				h-5.1c-0.7,0-1.3,0.2-1.9,0.4c1.7-15.2,13.8-27.2,29-29c-0.3,0.6-0.4,1.2-0.4,1.9v5.1c0,2.3,1.9,4.2,4.2,4.2
				c2.3,0,4.2-1.9,4.2-4.2v-5.1c0-0.7-0.2-1.3-0.4-1.9c15.2,1.7,27.2,13.8,29,29c-0.6-0.3-1.2-0.4-1.9-0.4h-5.1
				c-2.3,0-4.2,1.9-4.2,4.2c0,2.3,1.9,4.2,4.2,4.2h5.1c0.7,0,1.3-0.2,1.9-0.4C378,346.6,365.9,358.7,350.8,360.4z"/>
		</g>
		<g>
			<path class="st1" d="M356.3,323.5h-5.1v-4.3c0-2.3-1.9-4.2-4.2-4.2c-2.3,0-4.2,1.9-4.2,4.2v8.5c0,2.3,1.9,4.2,4.2,4.2h9.3
				c2.3,0,4.2-1.9,4.2-4.2C360.5,325.4,358.6,323.5,356.3,323.5z"/>
		</g>
	</g>
</g>
</svg>
