<?xml version="1.0" encoding="utf-8"?>
<!-- Generator: Adobe Illustrator 22.1.0, SVG Export Plug-In . SVG Version: 6.00 Build 0)  -->
<svg version="1.1" id="Layer_1" xmlns="http://www.w3.org/2000/svg" xmlns:xlink="http://www.w3.org/1999/xlink" x="0px" y="0px"
	 viewBox="0 0 500 500" style="enable-background:new 0 0 500 500;" xml:space="preserve">
<style type="text/css">
	.st0{fill:url(#SVGID_1_);}
	.st1{fill:url(#SVGID_2_);}
	.st2{fill:url(#SVGID_3_);}
	.st3{fill:url(#SVGID_4_);}
	.st4{fill:url(#SVGID_5_);}
	.st5{fill:url(#SVGID_6_);}
	.st6{fill:url(#SVGID_7_);}
	.st7{fill:url(#SVGID_8_);}
	.st8{fill:url(#SVGID_9_);}
	.st9{fill:url(#SVGID_10_);}
	.st10{fill:url(#SVGID_11_);}
	.st11{fill:url(#SVGID_12_);}
	.st12{fill:url(#SVGID_13_);}
	.st13{fill:url(#SVGID_14_);}
	.st14{fill:url(#SVGID_15_);}
	.st15{fill:url(#SVGID_16_);}
</style>
<g>
	<g>
		<linearGradient id="SVGID_1_" gradientUnits="userSpaceOnUse" x1="26.9274" y1="33.9397" x2="490.9274" y2="437.273">
			<stop  offset="0" style="stop-color:#FF626B"/>
			<stop  offset="1" style="stop-color:#F6AE04"/>
		</linearGradient>
		<path class="st0" d="M14.8,361.7c3.9,0,7.1-3.2,7.1-7.1V147.8h419.5v78c0,3.9,3.2,7.1,7.1,7.1c3.9,0,7.1-3.2,7.1-7.1V85.5
			c0-23.8-19.4-43.2-43.2-43.2h-18.6v-8.8c0-9.5-7.7-17.2-17.2-17.2h-13.2c-9.5,0-17.2,7.7-17.2,17.2v8.8H299v-8.8
			c0-9.5-7.7-17.2-17.2-17.2h-13.2c-9.5,0-17.2,7.7-17.2,17.2v8.8h-47.1v-8.8c0-9.5-7.7-17.2-17.2-17.2h-13.2
			c-9.5,0-17.2,7.7-17.2,17.2v8.8h-47.1v-8.8c0-9.5-7.7-17.2-17.2-17.2H79c-9.5,0-17.2,7.7-17.2,17.2v8.8H50.8
			C27,42.4,7.7,61.7,7.7,85.5v269C7.7,358.5,10.8,361.7,14.8,361.7z M360.3,33.6c0-1.7,1.4-3,3-3h13.2c1.7,0,3,1.4,3,3v34.5
			c0,1.7-1.4,3-3,3h-13.2c-1.7,0-3-1.4-3-3V33.6z M265.5,33.6c0-1.7,1.4-3,3-3h13.2c1.7,0,3,1.4,3,3v34.5c0,1.7-1.4,3-3,3h-13.2
			c-1.7,0-3-1.4-3-3V33.6z M170.7,33.6c0-1.7,1.4-3,3-3H187c1.7,0,3,1.4,3,3v34.5c0,1.7-1.4,3-3,3h-13.2c-1.7,0-3-1.4-3-3V33.6z
			 M76,33.6c0-1.7,1.4-3,3-3h13.2c1.7,0,3,1.4,3,3v34.5c0,1.7-1.4,3-3,3H79c-1.7,0-3-1.4-3-3V33.6z M50.8,56.6h10.9v11.5
			c0,9.5,7.7,17.2,17.2,17.2h13.2c9.5,0,17.2-7.7,17.2-17.2V56.6h47.1v11.5c0,9.5,7.7,17.2,17.2,17.2H187c9.5,0,17.2-7.7,17.2-17.2
			V56.6h47.1v11.5c0,9.5,7.7,17.2,17.2,17.2h13.2c9.5,0,17.2-7.7,17.2-17.2V56.6h47.1v11.5c0,9.5,7.7,17.2,17.2,17.2h13.2
			c9.5,0,17.2-7.7,17.2-17.2V56.6h18.6c16,0,29,13,29,29v48.1H21.9V85.5C21.9,69.6,34.9,56.6,50.8,56.6z"/>
	</g>
	<g>
		<linearGradient id="SVGID_2_" gradientUnits="userSpaceOnUse" x1="-159.4859" y1="248.392" x2="304.5141" y2="651.7254">
			<stop  offset="0" style="stop-color:#FF626B"/>
			<stop  offset="1" style="stop-color:#F6AE04"/>
		</linearGradient>
		<path class="st1" d="M88,427.7H26.1c-2.4,0-4.3-1.9-4.3-4.3v-36.5c0-3.9-3.2-7.1-7.1-7.1s-7.1,3.2-7.1,7.1v36.5
			c0,10.2,8.3,18.5,18.5,18.5H88c3.9,0,7.1-3.2,7.1-7.1C95.1,430.9,92,427.7,88,427.7z"/>
	</g>
	<g>
		<linearGradient id="SVGID_3_" gradientUnits="userSpaceOnUse" x1="-22.3255" y1="90.6009" x2="441.6745" y2="493.9343">
			<stop  offset="0" style="stop-color:#FF626B"/>
			<stop  offset="1" style="stop-color:#F6AE04"/>
		</linearGradient>
		<path class="st2" d="M87.8,168.5H63.1c-3.9,0-7.1,3.2-7.1,7.1c0,3.9,3.2,7.1,7.1,7.1h24.7c3.9,0,7.1-3.2,7.1-7.1
			C94.9,171.7,91.7,168.5,87.8,168.5z"/>
	</g>
	<g>
		<linearGradient id="SVGID_4_" gradientUnits="userSpaceOnUse" x1="10.3156" y1="53.0501" x2="474.3156" y2="456.3835">
			<stop  offset="0" style="stop-color:#FF626B"/>
			<stop  offset="1" style="stop-color:#F6AE04"/>
		</linearGradient>
		<path class="st3" d="M139,182.7h24.7c3.9,0,7.1-3.2,7.1-7.1c0-3.9-3.2-7.1-7.1-7.1H139c-3.9,0-7.1,3.2-7.1,7.1
			C131.9,179.5,135,182.7,139,182.7z"/>
	</g>
	<g>
		<linearGradient id="SVGID_5_" gradientUnits="userSpaceOnUse" x1="42.9557" y1="15.5006" x2="506.9557" y2="418.8339">
			<stop  offset="0" style="stop-color:#FF626B"/>
			<stop  offset="1" style="stop-color:#F6AE04"/>
		</linearGradient>
		<path class="st4" d="M214.8,182.7h24.7c3.9,0,7.1-3.2,7.1-7.1c0-3.9-3.2-7.1-7.1-7.1h-24.7c-3.9,0-7.1,3.2-7.1,7.1
			C207.7,179.5,210.9,182.7,214.8,182.7z"/>
	</g>
	<g>
		<linearGradient id="SVGID_6_" gradientUnits="userSpaceOnUse" x1="75.5963" y1="-22.0497" x2="539.5963" y2="381.2837">
			<stop  offset="0" style="stop-color:#FF626B"/>
			<stop  offset="1" style="stop-color:#F6AE04"/>
		</linearGradient>
		<path class="st5" d="M290.6,182.7h24.7c3.9,0,7.1-3.2,7.1-7.1c0-3.9-3.2-7.1-7.1-7.1h-24.7c-3.9,0-7.1,3.2-7.1,7.1
			C283.5,179.5,286.7,182.7,290.6,182.7z"/>
	</g>
	<g>
		<linearGradient id="SVGID_7_" gradientUnits="userSpaceOnUse" x1="108.2364" y1="-59.5992" x2="572.2364" y2="343.7341">
			<stop  offset="0" style="stop-color:#FF626B"/>
			<stop  offset="1" style="stop-color:#F6AE04"/>
		</linearGradient>
		<path class="st6" d="M391.2,168.5h-24.7c-3.9,0-7.1,3.2-7.1,7.1c0,3.9,3.2,7.1,7.1,7.1h24.7c3.9,0,7.1-3.2,7.1-7.1
			C398.3,171.7,395.1,168.5,391.2,168.5z"/>
	</g>
	<g>
		<linearGradient id="SVGID_8_" gradientUnits="userSpaceOnUse" x1="-40.0021" y1="110.9363" x2="423.9979" y2="514.2697">
			<stop  offset="0" style="stop-color:#FF626B"/>
			<stop  offset="1" style="stop-color:#F6AE04"/>
		</linearGradient>
		<path class="st7" d="M87.8,204.2H63.1c-3.9,0-7.1,3.2-7.1,7.1c0,3.9,3.2,7.1,7.1,7.1h24.7c3.9,0,7.1-3.2,7.1-7.1
			C94.9,207.4,91.7,204.2,87.8,204.2z"/>
	</g>
	<g>
		<linearGradient id="SVGID_9_" gradientUnits="userSpaceOnUse" x1="-7.361" y1="73.3855" x2="456.639" y2="476.7188">
			<stop  offset="0" style="stop-color:#FF626B"/>
			<stop  offset="1" style="stop-color:#F6AE04"/>
		</linearGradient>
		<path class="st8" d="M139,218.4h24.7c3.9,0,7.1-3.2,7.1-7.1c0-3.9-3.2-7.1-7.1-7.1H139c-3.9,0-7.1,3.2-7.1,7.1
			C131.9,215.2,135,218.4,139,218.4z"/>
	</g>
	<g>
		<linearGradient id="SVGID_10_" gradientUnits="userSpaceOnUse" x1="25.2791" y1="35.836" x2="489.2791" y2="439.1693">
			<stop  offset="0" style="stop-color:#FF626B"/>
			<stop  offset="1" style="stop-color:#F6AE04"/>
		</linearGradient>
		<path class="st9" d="M214.8,218.4h24.7c3.9,0,7.1-3.2,7.1-7.1c0-3.9-3.2-7.1-7.1-7.1h-24.7c-3.9,0-7.1,3.2-7.1,7.1
			C207.7,215.2,210.9,218.4,214.8,218.4z"/>
	</g>
	<g>
		<linearGradient id="SVGID_11_" gradientUnits="userSpaceOnUse" x1="57.9198" y1="-1.7143" x2="521.9197" y2="401.619">
			<stop  offset="0" style="stop-color:#FF626B"/>
			<stop  offset="1" style="stop-color:#F6AE04"/>
		</linearGradient>
		<path class="st10" d="M290.6,218.4h24.7c3.9,0,7.1-3.2,7.1-7.1c0-3.9-3.2-7.1-7.1-7.1h-24.7c-3.9,0-7.1,3.2-7.1,7.1
			C283.5,215.2,286.7,218.4,290.6,218.4z"/>
	</g>
	<g>
		<linearGradient id="SVGID_12_" gradientUnits="userSpaceOnUse" x1="90.5598" y1="-39.2638" x2="554.5598" y2="364.0695">
			<stop  offset="0" style="stop-color:#FF626B"/>
			<stop  offset="1" style="stop-color:#F6AE04"/>
		</linearGradient>
		<path class="st11" d="M391.2,204.2h-24.7c-3.9,0-7.1,3.2-7.1,7.1c0,3.9,3.2,7.1,7.1,7.1h24.7c3.9,0,7.1-3.2,7.1-7.1
			C398.3,207.4,395.1,204.2,391.2,204.2z"/>
	</g>
	<g>
		<linearGradient id="SVGID_13_" gradientUnits="userSpaceOnUse" x1="-22.9279" y1="91.2939" x2="441.0721" y2="494.6273">
			<stop  offset="0" style="stop-color:#FF626B"/>
			<stop  offset="1" style="stop-color:#F6AE04"/>
		</linearGradient>
		<path class="st12" d="M139.1,357.8l36.5,36.5c5.3,5.3,12.3,8.2,19.8,8.2c7.5,0,14.5-2.9,19.8-8.2l100-100
			c10.9-10.9,10.9-28.6,0-39.5c-10.9-10.9-28.6-10.9-39.5,0L195.4,335l-16.7-16.7c-10.9-10.9-28.6-10.9-39.5,0
			C128.2,329.1,128.2,346.9,139.1,357.8z M149.2,328.3c2.7-2.7,6.2-4,9.7-4c3.5,0,7,1.3,9.7,4l21.8,21.8c2.8,2.8,7.3,2.8,10,0
			l85.2-85.2c5.4-5.4,14.1-5.4,19.5,0c5.4,5.4,5.4,14.1,0,19.5l-100,100c-2.6,2.6-6.1,4-9.7,4c-3.7,0-7.1-1.4-9.7-4l-36.5-36.5
			C143.8,342.4,143.8,333.7,149.2,328.3z"/>
	</g>
	<g>
		<linearGradient id="SVGID_14_" gradientUnits="userSpaceOnUse" x1="-17.0109" y1="84.4869" x2="446.9891" y2="487.8202">
			<stop  offset="0" style="stop-color:#FF626B"/>
			<stop  offset="1" style="stop-color:#F6AE04"/>
		</linearGradient>
		<path class="st13" d="M455.5,314.9v-56.7c0-3.9-3.2-7.1-7.1-7.1c-3.9,0-7.1,3.2-7.1,7.1v47.6c-12.9-6.7-27.6-10.5-43.2-10.5
			c-51.9,0-94.2,42.3-94.2,94.2c0,13.6,2.9,26.5,8.1,38.2H120.4c-3.9,0-7.1,3.2-7.1,7.1c0,3.9,3.2,7.1,7.1,7.1h199.5
			c16.9,25.2,45.7,41.8,78.2,41.8c51.9,0,94.2-42.3,94.2-94.2C492.3,359.1,477.9,332.1,455.5,314.9z M398.1,469.5
			c-44.1,0-80-35.9-80-80s35.9-80,80-80s80,35.9,80,80S442.2,469.5,398.1,469.5z"/>
	</g>
	<g>
		<linearGradient id="SVGID_15_" gradientUnits="userSpaceOnUse" x1="10.6559" y1="52.6586" x2="474.6559" y2="455.992">
			<stop  offset="0" style="stop-color:#FF626B"/>
			<stop  offset="1" style="stop-color:#F6AE04"/>
		</linearGradient>
		<path class="st14" d="M398.1,319.7c-38.5,0-69.7,31.3-69.7,69.7c0,38.5,31.3,69.7,69.7,69.7s69.7-31.3,69.7-69.7
			C467.9,351,436.6,319.7,398.1,319.7z M404.5,444.6c0.5-1,0.7-2,0.7-3.1v-8.6c0-3.9-3.2-7.1-7.1-7.1c-3.9,0-7.1,3.2-7.1,7.1v8.6
			c0,1.1,0.3,2.2,0.7,3.1c-25.6-2.9-45.9-23.3-48.8-48.8c0.9,0.5,2,0.7,3.1,0.7h8.6c3.9,0,7.1-3.2,7.1-7.1s-3.2-7.1-7.1-7.1h-8.6
			c-1.1,0-2.2,0.3-3.1,0.7c2.9-25.6,23.3-45.9,48.8-48.8c-0.5,1-0.7,2-0.7,3.1v8.6c0,3.9,3.2,7.1,7.1,7.1c3.9,0,7.1-3.2,7.1-7.1
			v-8.6c0-1.1-0.3-2.2-0.7-3.1c25.6,2.9,45.9,23.3,48.8,48.8c-1-0.5-2-0.7-3.1-0.7h-8.6c-3.9,0-7.1,3.2-7.1,7.1s3.2,7.1,7.1,7.1h8.6
			c1.1,0,2.2-0.3,3.1-0.7C450.4,421.4,430,441.7,404.5,444.6z"/>
	</g>
	<g>
		<linearGradient id="SVGID_16_" gradientUnits="userSpaceOnUse" x1="14.2164" y1="48.5627" x2="478.2164" y2="451.896">
			<stop  offset="0" style="stop-color:#FF626B"/>
			<stop  offset="1" style="stop-color:#F6AE04"/>
		</linearGradient>
		<path class="st15" d="M413.8,382.4h-8.5v-7.3c0-3.9-3.2-7.1-7.1-7.1c-3.9,0-7.1,3.2-7.1,7.1v14.4c0,3.9,3.2,7.1,7.1,7.1h15.6
			c3.9,0,7.1-3.2,7.1-7.1S417.7,382.4,413.8,382.4z"/>
	</g>
</g>
</svg>
