<?xml version="1.0" encoding="utf-8"?>
<!-- Generator: Adobe Illustrator 22.1.0, SVG Export Plug-In . SVG Version: 6.00 Build 0)  -->
<svg version="1.1" id="Layer_1" xmlns="http://www.w3.org/2000/svg" xmlns:xlink="http://www.w3.org/1999/xlink" x="0px" y="0px"
	 viewBox="0 0 500 500" style="enable-background:new 0 0 500 500;" xml:space="preserve">
<style type="text/css">
	.st0{fill:#0071BC;}
	.st1{fill:#FFFFFF;}
</style>
<g>
	<g>
		<circle class="st0" cx="250" cy="250" r="240.3"/>
		<g>
			<path class="st1" d="M301,125.1l-32.4-0.1c-36.4,0-59.9,24.1-59.9,61.5v28.4h-32.6c-2.8,0-5.1,2.3-5.1,5.1v41.1
				c0,2.8,2.3,5.1,5.1,5.1h32.6v103.7c0,2.8,2.3,5.1,5.1,5.1h42.5c2.8,0,5.1-2.3,5.1-5.1V266.2h38.1c2.8,0,5.1-2.3,5.1-5.1l0-41.1
				c0-1.4-0.5-2.6-1.5-3.6s-2.3-1.5-3.6-1.5h-38.1v-24c0-11.6,2.8-17.4,17.8-17.4l21.8,0c2.8,0,5.1-2.3,5.1-5.1v-38.2
				C306.1,127.4,303.8,125.1,301,125.1z"/>
		</g>
	</g>
</g>
</svg>
