<?xml version="1.0" encoding="utf-8"?>
<!-- Generator: Adobe Illustrator 22.1.0, SVG Export Plug-In . SVG Version: 6.00 Build 0)  -->
<svg version="1.1" id="Layer_1" xmlns="http://www.w3.org/2000/svg" xmlns:xlink="http://www.w3.org/1999/xlink" x="0px" y="0px"
	 viewBox="0 0 500 500" style="enable-background:new 0 0 500 500;" xml:space="preserve">
<style type="text/css">
	.st0{fill:#FFFFFF;}
</style>
<g>
	<path class="st0" d="M230.4,336.7c3.7-3.7,3.7-9.7,0-13.4c-3.7-3.7-9.7-3.7-13.4,0c-3.7,3.7-3.7,9.7,0,13.4
		C220.7,340.4,226.7,340.4,230.4,336.7z"/>
	<path class="st0" d="M185.5,111.3c0,57.6,46.8,104.4,104.4,104.4s104.4-46.8,104.4-104.4S347.5,6.9,289.9,6.9
		S185.5,53.8,185.5,111.3z M375.3,111.3c0,47.1-38.3,85.4-85.4,85.4s-85.4-38.3-85.4-85.4c0-47.1,38.3-85.4,85.4-85.4
		S375.3,64.2,375.3,111.3z"/>
	<path class="st0" d="M116.3,490.3c3.7,3.7,9.7,3.7,13.4,0.1l46-45.3c7.8-7.8,10.2-19.4,6.8-29.5l9.9-9.5c5.3-5.1,12.3-8,19.8-8
		h126.2c22.4,0,43.5-8.6,59.6-24.2c0.7-0.6-5,6,86.1-102.8c13.5-16,11.5-40-4.5-53.5c-15.9-13.4-39.7-11.5-53.3,4.2l-56,57.6
		c-7.1-8.7-17.9-14.1-29.5-14.1H234.9c-15.1-6.3-31-9.5-47.5-9.5c-45.7,0-85.6,21.1-107,60.7c-9-1.7-18.5,1-25.4,7.9L9.8,369.5
		c-3.7,3.7-3.7,9.7,0,13.4L116.3,490.3z M187.4,274.6c14.5,0,28.6,2.9,41.8,8.7c1.2,0.5,2.5,0.8,3.8,0.8h107.8c10.3,0,19,8.4,19,19
		c0,10.5-8.5,19-19,19h-77.4c-5.2,0-9.5,4.3-9.5,9.5c0,5.2,4.3,9.5,9.5,9.5h77.4c20.9,0,38-17,38-38c0-1.7-0.1-3.3-0.3-5
		c54.2-55.7,61.8-63.5,62.2-63.9c6.8-8,18.8-9,26.8-2.3c8,6.8,9,18.8,2.2,26.8l-85.1,101.8c-12.4,11.9-28.8,18.5-46,18.5H212.2
		c-12.4,0-24.1,4.7-33,13.3l-8.1,7.8l-74.4-74.4C114.2,293.2,146.8,274.6,187.4,274.6z M68.4,337.6c3.1-3.1,7.9-3.7,11.8-1.3
		c1.6,1-3.1-3.3,82.2,81.9c3.8,3.8,3.6,9.8,0.1,13.4l-39.2,38.7l-93.3-94L68.4,337.6z"/>
	<path class="st0" d="M278.5,54.4v11.1c-11,3.9-19,14.5-19,26.8c0,15.7,12.8,28.5,28.5,28.5c5.2,0,9.5,4.3,9.5,9.5s-4.3,9.5-9.5,9.5
		c-4.1,0-8.4-2.5-12.3-7.2c-3.4-4-9.4-4.5-13.4-1.2c-4,3.4-4.5,9.4-1.2,13.4c5.1,6,11,10.2,17.4,12.4v11.1c0,5.2,4.3,9.5,9.5,9.5
		s9.5-4.2,9.5-9.5v-11.1c11-3.9,19-14.5,19-26.8c0-15.7-12.8-28.5-28.5-28.5c-5.2,0-9.5-4.3-9.5-9.5c0-5.2,4.3-9.5,9.5-9.5
		c3.4,0,6.9,1.7,10.3,5c3.8,3.6,9.8,3.5,13.4-0.2c3.6-3.8,3.5-9.8-0.2-13.4c-4.8-4.7-9.6-7.3-14-8.7V54.4c0-5.2-4.3-9.5-9.5-9.5
		S278.5,49.1,278.5,54.4z"/>
</g>
</svg>
