<?xml version="1.0" encoding="utf-8"?>
<!-- Generator: Adobe Illustrator 22.1.0, SVG Export Plug-In . SVG Version: 6.00 Build 0)  -->
<svg version="1.1" id="Layer_1" xmlns="http://www.w3.org/2000/svg" xmlns:xlink="http://www.w3.org/1999/xlink" x="0px" y="0px"
	 viewBox="0 0 500 500" style="enable-background:new 0 0 500 500;" xml:space="preserve">
<style type="text/css">
	.st0{fill:#662D91;}
	.st1{fill:#FFFFFF;}
</style>
<g>
	<g>
		<path class="st0" d="M250,493C116,493,7,384,7,250S116,7,250,7c134,0,243,109,243,243S384,493,250,493z"/>
	</g>
	<g>
		<g>
			<path class="st1" d="M224.2,289.1c2.3-2.3,2.3-6.1,0-8.4c-2.3-2.3-6.1-2.3-8.4,0c-2.3,2.3-2.3,6.1,0,8.4
				C218.1,291.4,221.9,291.4,224.2,289.1z"/>
		</g>
		<g>
			<path class="st1" d="M195.9,147.4c0,36.2,29.5,65.7,65.7,65.7s65.7-29.5,65.7-65.7s-29.5-65.7-65.7-65.7S195.9,111.2,195.9,147.4
				z M315.3,147.4c0,29.6-24.1,53.7-53.7,53.7c-29.6,0-53.7-24.1-53.7-53.7c0-29.6,24.1-53.7,53.7-53.7
				C291.2,93.6,315.3,117.7,315.3,147.4z"/>
		</g>
		<g>
			<path class="st1" d="M152.5,385.7c2.3,2.3,6.1,2.4,8.4,0l28.9-28.5c4.9-4.9,6.4-12.2,4.3-18.5l6.2-6c3.4-3.2,7.8-5,12.4-5h79.4
				c14.1,0,27.4-5.4,37.5-15.2c0.4-0.4-3.2,3.8,54.1-64.7c8.5-10.1,7.2-25.2-2.8-33.7c-10-8.4-25-7.2-33.5,2.7L312.2,253
				c-4.4-5.5-11.2-8.9-18.6-8.9H227c-9.5-4-19.5-6-29.9-6c-28.7,0-53.9,13.3-67.3,38.2c-5.7-1.1-11.7,0.6-16,4.9l-28.4,28.5
				c-2.3,2.3-2.3,6.1,0,8.4L152.5,385.7z M197.1,250.1c9.1,0,18,1.8,26.3,5.5c0.8,0.3,1.6,0.5,2.4,0.5h67.8
				c6.5,0,11.9,5.3,11.9,11.9c0,6.6-5.4,11.9-11.9,11.9h-48.7c-3.3,0-6,2.7-6,6c0,3.3,2.7,6,6,6h48.7c13.2,0,23.9-10.7,23.9-23.9
				c0-1-0.1-2.1-0.2-3.1c34.1-35,38.9-40,39.1-40.2c4.3-5,11.8-5.7,16.8-1.4c5,4.3,5.7,11.8,1.4,16.9l-53.5,64
				c-7.8,7.5-18.1,11.6-28.9,11.6h-79.4c-7.8,0-15.1,3-20.7,8.4l-5.1,4.9l-46.8-46.8C151.1,261.7,171.6,250.1,197.1,250.1z
				 M122.3,289.7c2-2,5-2.3,7.4-0.8c1,0.6-1.9-2.1,51.7,51.5c2.4,2.4,2.3,6.2,0,8.4l-24.7,24.3L98.1,314L122.3,289.7z"/>
		</g>
		<g>
			<path class="st1" d="M254.4,111.6v7c-6.9,2.5-11.9,9.1-11.9,16.9c0,9.9,8,17.9,17.9,17.9c3.3,0,6,2.7,6,6c0,3.3-2.7,6-6,6
				c-2.5,0-5.3-1.6-7.8-4.5c-2.1-2.5-5.9-2.8-8.4-0.7c-2.5,2.1-2.9,5.9-0.7,8.4c3.2,3.8,6.9,6.4,10.9,7.8v7c0,3.3,2.7,6,6,6
				c3.3,0,6-2.7,6-6v-7c6.9-2.5,11.9-9.1,11.9-16.9c0-9.9-8-17.9-17.9-17.9c-3.3,0-6-2.7-6-6c0-3.3,2.7-6,6-6c2.1,0,4.3,1.1,6.5,3.1
				c2.4,2.3,6.1,2.2,8.4-0.1c2.3-2.4,2.2-6.1-0.1-8.4c-3-2.9-6.1-4.6-8.8-5.5v-7c0-3.3-2.7-6-6-6
				C257.1,105.6,254.4,108.3,254.4,111.6z"/>
		</g>
	</g>
</g>
</svg>
