<?xml version="1.0" encoding="utf-8"?>
<!-- Generator: Adobe Illustrator 22.1.0, SVG Export Plug-In . SVG Version: 6.00 Build 0)  -->
<svg version="1.1" id="Layer_1" xmlns="http://www.w3.org/2000/svg" xmlns:xlink="http://www.w3.org/1999/xlink" x="0px" y="0px"
	 viewBox="0 0 500 500" style="enable-background:new 0 0 500 500;" xml:space="preserve">
<style type="text/css">
	.st0{fill:url(#SVGID_1_);}
	.st1{fill:url(#SVGID_2_);}
	.st2{fill:url(#SVGID_3_);}
	.st3{fill:url(#SVGID_4_);}
	.st4{fill:url(#SVGID_5_);}
	.st5{fill:url(#SVGID_6_);}
	.st6{fill:url(#SVGID_7_);}
	.st7{fill:url(#SVGID_8_);}
</style>
<g>
	<g>
		<g>
			<linearGradient id="SVGID_1_" gradientUnits="userSpaceOnUse" x1="4.6295" y1="18.2811" x2="514.8049" y2="500.0719">
				<stop  offset="0" style="stop-color:#FF626B"/>
				<stop  offset="1" style="stop-color:#F6AE04"/>
			</linearGradient>
			<path class="st0" d="M250,119.3c-72.1,0-130.7,58.6-130.7,130.7S177.9,380.7,250,380.7S380.7,322.1,380.7,250
				S322.1,119.3,250,119.3z M250,362.3c-61.9,0-112.3-50.4-112.3-112.3S188.1,137.7,250,137.7S362.3,188.1,362.3,250
				S311.9,362.3,250,362.3z"/>
		</g>
	</g>
	<g>
		<g>
			<linearGradient id="SVGID_2_" gradientUnits="userSpaceOnUse" x1="105.3248" y1="-88.3466" x2="615.5002" y2="393.4442">
				<stop  offset="0" style="stop-color:#FF626B"/>
				<stop  offset="1" style="stop-color:#F6AE04"/>
			</linearGradient>
			<path class="st1" d="M480.8,15.4c-3-1.6-6.7-1.4-9.5,0.5c-45.2,30.5-72.2,81.3-72.2,135.9v119.4c0,12.8,5,24.9,14,33.9l17.3,17.3
				V458c0,15.2,12.4,27.6,27.6,27.6c15.2,0,27.6-12.4,27.6-27.6V23.5C485.7,20.1,483.8,17,480.8,15.4z M467.3,458
				c0,5.1-4.1,9.2-9.2,9.2s-9.2-4.1-9.2-9.2V318.6c0-2.4-1-4.8-2.7-6.5l-19.9-19.9c-5.6-5.6-8.7-13-8.7-20.9V151.8
				c0-42.3,18.3-82.1,49.7-109.6V458z"/>
		</g>
	</g>
	<g>
		<g>
			<linearGradient id="SVGID_3_" gradientUnits="userSpaceOnUse" x1="-2.7998" y1="26.1481" x2="507.3756" y2="507.9389">
				<stop  offset="0" style="stop-color:#FF626B"/>
				<stop  offset="1" style="stop-color:#F6AE04"/>
			</linearGradient>
			<path class="st2" d="M228.9,177c-2-4.7-7.4-6.8-12.1-4.9c-31.2,13.3-51.4,43.9-51.4,77.9c0,5.1,4.1,9.2,9.2,9.2s9.2-4.1,9.2-9.2
				c0-26.6,15.8-50.5,40.2-60.9C228.7,187.1,230.9,181.7,228.9,177z"/>
		</g>
	</g>
	<g>
		<g>
			<linearGradient id="SVGID_4_" gradientUnits="userSpaceOnUse" x1="42.1815" y1="-21.4832" x2="552.3569" y2="460.3076">
				<stop  offset="0" style="stop-color:#FF626B"/>
				<stop  offset="1" style="stop-color:#F6AE04"/>
			</linearGradient>
			<path class="st3" d="M250,165.4l-0.5,0c-5.1,0-9.2,4.2-9.1,9.3c0,5.1,4.1,9.1,9.2,9.1c0,0,0,0,0.1,0l0.3,0c5.1,0,9.2-4.1,9.2-9.2
				S255.1,165.4,250,165.4z"/>
		</g>
	</g>
	<g>
		<g>
			<linearGradient id="SVGID_5_" gradientUnits="userSpaceOnUse" x1="81.1534" y1="-62.7512" x2="591.3288" y2="419.0396">
				<stop  offset="0" style="stop-color:#FF626B"/>
				<stop  offset="1" style="stop-color:#F6AE04"/>
			</linearGradient>
			<path class="st4" d="M377.6,128.9c-16.3-17.1-35.4-30.6-57-40.1c-22.3-9.8-46.1-14.8-70.6-14.8c-28.1,0-54.9,6.4-79.7,19.1
				c-4.5,2.3-6.3,7.8-4,12.4c2.3,4.5,7.9,6.3,12.4,4c22.2-11.3,46.2-17.1,71.4-17.1c43.6,0,84.2,17.4,114.3,49.1
				c1.8,1.9,4.2,2.9,6.7,2.9c2.3,0,4.6-0.8,6.3-2.5C381,138.4,381.1,132.6,377.6,128.9z"/>
		</g>
	</g>
	<g>
		<g>
			<linearGradient id="SVGID_6_" gradientUnits="userSpaceOnUse" x1="-46.569" y1="72.4959" x2="463.6064" y2="554.2867">
				<stop  offset="0" style="stop-color:#FF626B"/>
				<stop  offset="1" style="stop-color:#F6AE04"/>
			</linearGradient>
			<path class="st5" d="M386.5,346.1c-4-3.2-9.8-2.5-12.9,1.5c-30.1,38.1-75.2,59.9-123.6,59.9c-30.3,0-59.8-8.6-85.2-25
				c-4.3-2.8-10-1.5-12.7,2.8c-2.8,4.3-1.5,10,2.8,12.7c28.4,18.3,61.2,27.9,95.1,27.9c54.1,0,104.5-24.4,138.1-66.9
				C391.2,355,390.5,349.2,386.5,346.1z"/>
		</g>
	</g>
	<g>
		<g>
			<linearGradient id="SVGID_7_" gradientUnits="userSpaceOnUse" x1="-109.7588" y1="139.4085" x2="400.4166" y2="621.1993">
				<stop  offset="0" style="stop-color:#FF626B"/>
				<stop  offset="1" style="stop-color:#F6AE04"/>
			</linearGradient>
			<path class="st6" d="M139.5,362.2l-0.1-0.2c0-0.1-0.1-0.1-0.1-0.2c-3.3-3.9-9.1-4.4-13-1.1c-3.9,3.3-4.4,9.1-1.1,13l0.1,0.1l0,0
				c0.1,0.1,0.2,0.2,0.3,0.4c1.8,2.1,4.4,3.2,7,3.2c2.1,0,4.3-0.7,6-2.2C142.4,371.9,142.8,366.1,139.5,362.2z"/>
		</g>
	</g>
	<g>
		<g>
			<linearGradient id="SVGID_8_" gradientUnits="userSpaceOnUse" x1="-66.7429" y1="93.8584" x2="443.4325" y2="575.6492">
				<stop  offset="0" style="stop-color:#FF626B"/>
				<stop  offset="1" style="stop-color:#F6AE04"/>
			</linearGradient>
			<path class="st7" d="M128.5,14.3c-5.1,0-9.2,4.1-9.2,9.2V123h-16.6c0-0.1,0-0.1,0-0.2V23.5c0-5.1-4.1-9.2-9.2-9.2
				s-9.2,4.1-9.2,9.2v99.3c0,0.1,0,0.1,0,0.2H67.7c0-0.1,0-0.1,0-0.2V23.5c0-5.1-4.1-9.2-9.2-9.2s-9.2,4.1-9.2,9.2v99.3
				c0,0.1,0,0.1,0,0.2H32.7V23.5c0-5.1-4.1-9.2-9.2-9.2s-9.2,4.1-9.2,9.2v112.3c0,22.6,13.7,43,34.1,51.8V458
				c0,15.2,12.4,27.6,27.6,27.6s27.6-12.4,27.6-27.6V187.6c20.4-8.8,34.1-29.2,34.1-51.8V23.5C137.7,18.5,133.6,14.3,128.5,14.3z
				 M91.9,172.3c-3.9,1.1-6.7,4.7-6.7,8.8V458c0,5.1-4.1,9.2-9.2,9.2s-9.2-4.1-9.2-9.2V181.2c0-4.1-2.7-7.7-6.7-8.8
				c-14.3-4.1-24.8-16.5-27-30.9h85.7C116.7,155.9,106.2,168.2,91.9,172.3z"/>
		</g>
	</g>
</g>
</svg>
