<?xml version="1.0" encoding="utf-8"?>
<!-- Generator: Adobe Illustrator 22.1.0, SVG Export Plug-In . SVG Version: 6.00 Build 0)  -->
<svg version="1.1" id="Layer_1" xmlns="http://www.w3.org/2000/svg" xmlns:xlink="http://www.w3.org/1999/xlink" x="0px" y="0px"
	 viewBox="0 0 500 500" style="enable-background:new 0 0 500 500;" xml:space="preserve">
<style type="text/css">
	.st0{fill:#ED1C24;}
	.st1{fill:#FFFFFF;}
</style>
<g>
	<g>
		<path class="st0" d="M250,495.7C114.5,495.7,4.3,385.5,4.3,250S114.5,4.3,250,4.3S495.7,114.5,495.7,250S385.5,495.7,250,495.7z"
			/>
	</g>
	<g>
		<g>
			<g>
				<g>
					<path class="st1" d="M243.3,174.9c-40.3,0-73.1,32.8-73.1,73.1s32.8,73.1,73.1,73.1s73.1-32.8,73.1-73.1
						S283.6,174.9,243.3,174.9z M243.3,310.8c-34.6,0-62.8-28.2-62.8-62.8s28.2-62.8,62.8-62.8s62.8,28.2,62.8,62.8
						S278,310.8,243.3,310.8z"/>
				</g>
			</g>
		</g>
		<g>
			<g>
				<g>
					<path class="st1" d="M372.4,116.8c-1.7-0.9-3.7-0.8-5.3,0.3c-25.3,17.1-40.4,45.5-40.4,76v66.8c0,7.2,2.8,13.9,7.9,19l9.7,9.7
						v75.9c0,8.5,6.9,15.5,15.5,15.5s15.5-6.9,15.5-15.5V121.3C375.2,119.4,374.1,117.7,372.4,116.8z M364.9,364.4
						c0,2.8-2.3,5.2-5.2,5.2c-2.8,0-5.2-2.3-5.2-5.2v-78c0-1.4-0.5-2.7-1.5-3.6l-11.2-11.2c-3.1-3.1-4.8-7.3-4.8-11.7v-66.8
						c0-23.7,10.2-45.9,27.8-61.3V364.4z"/>
				</g>
			</g>
		</g>
		<g>
			<g>
				<g>
					<path class="st1" d="M231.5,207.2c-1.1-2.6-4.1-3.8-6.8-2.7C207.3,211.9,196,229,196,248c0,2.8,2.3,5.2,5.2,5.2
						c2.8,0,5.2-2.3,5.2-5.2c0-14.9,8.8-28.2,22.5-34.1C231.4,212.8,232.6,209.8,231.5,207.2z"/>
				</g>
			</g>
		</g>
		<g>
			<g>
				<g>
					<path class="st1" d="M243.3,200.7l-0.3,0c-2.8,0-5.1,2.3-5.1,5.2c0,2.8,2.3,5.1,5.1,5.1c0,0,0,0,0,0l0.2,0
						c2.8,0,5.2-2.3,5.2-5.2C248.5,203,246.2,200.7,243.3,200.7z"/>
				</g>
			</g>
		</g>
		<g>
			<g>
				<g>
					<path class="st1" d="M314.7,180.3c-9.1-9.6-19.8-17.1-31.9-22.4c-12.5-5.5-25.8-8.3-39.5-8.3c-15.7,0-30.7,3.6-44.6,10.7
						c-2.5,1.3-3.5,4.4-2.3,6.9c1.3,2.5,4.4,3.5,6.9,2.3c12.4-6.3,25.9-9.5,39.9-9.5c24.4,0,47.1,9.8,63.9,27.5
						c1,1.1,2.4,1.6,3.7,1.6c1.3,0,2.5-0.5,3.5-1.4C316.6,185.6,316.7,182.3,314.7,180.3z"/>
				</g>
			</g>
		</g>
		<g>
			<g>
				<g>
					<path class="st1" d="M319.7,301.8c-2.2-1.8-5.5-1.4-7.2,0.8c-16.8,21.3-42,33.5-69.2,33.5c-17,0-33.4-4.8-47.6-14
						c-2.4-1.5-5.6-0.8-7.1,1.5c-1.5,2.4-0.8,5.6,1.5,7.1c15.9,10.2,34.3,15.6,53.2,15.6c30.3,0,58.4-13.6,77.2-37.4
						C322.3,306.8,321.9,303.5,319.7,301.8z"/>
				</g>
			</g>
		</g>
		<g>
			<g>
				<g>
					<path class="st1" d="M181.5,310.8L181.5,310.8c-0.1-0.1-0.1-0.2-0.2-0.2c-1.8-2.2-5.1-2.5-7.3-0.6c-2.2,1.8-2.5,5.1-0.6,7.3
						l0,0.1l0,0c0.1,0.1,0.1,0.1,0.2,0.2c1,1.2,2.5,1.8,3.9,1.8c1.2,0,2.4-0.4,3.4-1.2C183.1,316.2,183.4,313,181.5,310.8z"/>
				</g>
			</g>
		</g>
		<g>
			<g>
				<g>
					<path class="st1" d="M175.3,116.2c-2.8,0-5.2,2.3-5.2,5.2v55.6h-9.3c0,0,0-0.1,0-0.1v-55.5c0-2.8-2.3-5.2-5.2-5.2
						c-2.8,0-5.2,2.3-5.2,5.2v55.5c0,0,0,0.1,0,0.1h-9.3c0,0,0-0.1,0-0.1v-55.5c0-2.8-2.3-5.2-5.2-5.2c-2.8,0-5.2,2.3-5.2,5.2v55.5
						c0,0,0,0.1,0,0.1h-9.3v-55.6c0-2.8-2.3-5.2-5.2-5.2s-5.2,2.3-5.2,5.2v62.8c0,12.6,7.7,24,19.1,29v151.3
						c0,8.5,6.9,15.5,15.5,15.5s15.5-6.9,15.5-15.5V213.1c11.4-4.9,19.1-16.3,19.1-29v-62.8C180.5,118.5,178.2,116.2,175.3,116.2z
						 M154.9,204.5c-2.2,0.6-3.7,2.7-3.7,4.9v154.9c0,2.8-2.3,5.2-5.2,5.2s-5.2-2.3-5.2-5.2V209.5c0-2.3-1.5-4.3-3.7-4.9
						c-8-2.3-13.9-9.2-15.1-17.3H170C168.7,195.3,162.9,202.2,154.9,204.5z"/>
				</g>
			</g>
		</g>
	</g>
</g>
</svg>
