<?xml version="1.0" encoding="utf-8"?>
<!-- Generator: Adobe Illustrator 22.1.0, SVG Export Plug-In . SVG Version: 6.00 Build 0)  -->
<svg version="1.1" id="Layer_1" xmlns="http://www.w3.org/2000/svg" xmlns:xlink="http://www.w3.org/1999/xlink" x="0px" y="0px"
	 viewBox="0 0 500 500" style="enable-background:new 0 0 500 500;" xml:space="preserve">
<style type="text/css">
	.st0{fill:#DB3A3A;}
	.st1{fill:#FFFFFF;}
</style>
<g>
	<g>
		<circle class="st0" cx="250" cy="250" r="240.3"/>
		<g>
			<g>
				<g>
					<polygon class="st1" points="350.1,234 350.1,201.9 334.1,201.9 334.1,234 302.1,234 302.1,250 334.1,250 334.1,282 350.1,282 
						350.1,250 382.2,250 382.2,234 					"/>
				</g>
			</g>
			<g>
				<g>
					<path class="st1" d="M205.9,234v32h45.3c-6.6,18.6-24.4,32-45.3,32c-26.5,0-48.1-21.6-48.1-48.1s21.6-48.1,48.1-48.1
						c11.5,0,22.5,4.1,31.1,11.6l21.1-24.2c-14.4-12.6-32.9-19.5-52.2-19.5c-44.2,0-80.1,35.9-80.1,80.1s35.9,80.1,80.1,80.1
						S286,294.2,286,250v-16H205.9z"/>
				</g>
			</g>
		</g>
	</g>
</g>
</svg>
