<?xml version="1.0" encoding="utf-8"?>
<!-- Generator: Adobe Illustrator 22.1.0, SVG Export Plug-In . SVG Version: 6.00 Build 0)  -->
<svg version="1.1" id="Layer_1" xmlns="http://www.w3.org/2000/svg" xmlns:xlink="http://www.w3.org/1999/xlink" x="0px" y="0px"
	 viewBox="0 0 500 500" style="enable-background:new 0 0 500 500;" xml:space="preserve">
<style type="text/css">
	.st0{fill:#FF626B;}
	.st1{fill:#FFFFFF;}
</style>
<g>
	<g>
		<path class="st0" d="M250,495.7C114.5,495.7,4.3,385.5,4.3,250C4.3,114.5,114.5,4.3,250,4.3c135.5,0,245.7,110.2,245.7,245.7
			C495.7,385.5,385.5,495.7,250,495.7z"/>
	</g>
	<g>
		<g>
			<g>
				<path class="st1" d="M349.7,178.9c-12.6-12.6-29.4-19.6-47.2-19.6c-17.8,0-34.6,7-47.2,19.6l-5.3,5.3l-5.3-5.3
					c-12.6-12.6-29.4-19.6-47.3-19.6c-17.8,0-34.6,7-47.2,19.6c-26.1,26.1-26.1,68.4,0,94.5l94.8,94.8c1.4,1.4,3.2,2.1,5,2.1
					c1.8,0,3.6-0.7,5-2.1l94.8-94.8c12.6-12.6,19.6-29.4,19.6-47.2C369.3,208.3,362.3,191.5,349.7,178.9z M339.8,263.4l-89.8,89.8
					l-89.8-89.8c-20.6-20.6-20.6-54,0-74.6c10-10,23.2-15.4,37.3-15.4c14.1,0,27.3,5.5,37.3,15.4l10.3,10.3c2.8,2.8,7.2,2.8,10,0
					l10.3-10.3c10-10,23.2-15.4,37.3-15.4c14.1,0,27.3,5.5,37.3,15.4C360.3,209.4,360.3,242.9,339.8,263.4z"/>
			</g>
		</g>
	</g>
	<g>
		<g>
			<g>
				<path class="st1" d="M139.3,248.3h-25.8c-3.9,0-7,3.2-7,7s3.2,7,7,7h25.8c3.9,0,7-3.2,7-7S143.2,248.3,139.3,248.3z"/>
			</g>
		</g>
	</g>
	<g>
		<g>
			<g>
				<path class="st1" d="M359.8,248.5h-67.4L282,225.4c-0.8-1.7-2.5-2.8-4.5-2.7c-1.9,0.1-3.6,1.3-4.2,3.1l-21.4,60.4L225.8,214
					c-0.6-1.8-2.3-3-4.2-3.1c-2-0.1-3.7,1-4.5,2.7l-17.5,37.2h-58c-2.6,0-4.7,2.1-4.7,4.7s3.1,4.5,5.7,4.5h61c1.8,0,2.5-0.8,3.3-2.5
					l14-29.7l26.7,73.8c0.7,1.9,2.4,3.1,4.4,3.1c0,0,0,0,0,0c2,0,3.7-1.3,4.4-3.1l21.9-61.8l6.9,15.2c0.8,1.7,3.4,2.5,5.3,2.5h70.4
					c2.6,0,3.7-1.9,3.7-4.5C364.5,250.6,362.4,248.5,359.8,248.5z"/>
			</g>
		</g>
	</g>
	<g>
		<g>
			<g>
				<path class="st1" d="M383.3,245.9h-21.1c-3.9,0-7,3.2-7,7c0,3.9,3.2,7,7,7h21.1c3.9,0,7-3.2,7-7
					C390.4,249.1,387.2,245.9,383.3,245.9z"/>
			</g>
		</g>
	</g>
</g>
</svg>
