<?xml version="1.0" encoding="utf-8"?>
<!-- Generator: Adobe Illustrator 22.1.0, SVG Export Plug-In . SVG Version: 6.00 Build 0)  -->
<svg version="1.1" id="Layer_1" xmlns="http://www.w3.org/2000/svg" xmlns:xlink="http://www.w3.org/1999/xlink" x="0px" y="0px"
	 viewBox="0 0 500 500" style="enable-background:new 0 0 500 500;" xml:space="preserve">
<style type="text/css">
	.st0{fill:#FFFFFF;}
</style>
<g>
	<g>
		<g>
			<path class="st0" d="M423.9,102.5C402.3,80.9,373.5,69,342.8,69c-30.6,0-59.4,11.9-81.1,33.6l-9.1,9.1l-9.1-9.1
				C221.9,80.9,193.1,69,162.4,69c-30.6,0-59.4,11.9-81.1,33.6c-44.7,44.7-44.7,117.5,0,162.2l162.8,162.8c2.4,2.4,5.4,3.5,8.5,3.5
				c3.1,0,6.2-1.2,8.6-3.5l162.8-162.8c21.7-21.7,33.6-50.5,33.6-81.1C457.5,153,445.6,124.2,423.9,102.5z M406.8,247.7L252.6,401.9
				L98.4,247.7c-35.3-35.3-35.3-92.7,0-128c17.1-17.1,39.8-26.5,64-26.5c24.2,0,46.9,9.4,64,26.5l17.6,17.6c4.7,4.7,12.4,4.7,17.1,0
				l17.6-17.6c17.1-17.1,39.8-26.5,64-26.5c24.2,0,46.9,9.4,64,26.5C442.1,154.9,442.1,212.4,406.8,247.7z"/>
		</g>
	</g>
	<g>
		<g>
			<path class="st0" d="M62.7,221.6H18.4c-6.7,0-12.1,5.4-12.1,12.1c0,6.7,5.4,12.1,12.1,12.1h44.3c6.7,0,12.1-5.4,12.1-12.1
				C74.8,227,69.4,221.6,62.7,221.6z"/>
		</g>
	</g>
	<g>
		<g>
			<path class="st0" d="M441.3,222H325.7l-18-39.6c-1.4-3-4.3-4.8-7.7-4.7c-3.3,0.1-6.2,2.3-7.2,5.4L256,286.7l-44.7-123.8
				c-1.1-3.1-3.9-5.2-7.2-5.3c-3.5-0.2-6.3,1.7-7.7,4.6l-30,63.8H66.7c-4.5,0-8.1,3.6-8.1,8.1s5.3,7.7,9.8,7.7h104.7
				c3.1,0,4.3-1.4,5.6-4.2l24-50.9l45.8,126.7c1.2,3.2,4.2,5.3,7.6,5.3c0,0,0,0,0,0c3.4,0,6.4-2.2,7.6-5.4l37.6-106.1l11.9,26.1
				c1.3,2.9,5.9,4.3,9,4.3H443c4.4,0,6.4-3.2,6.4-7.7C449.4,225.6,445.7,222,441.3,222z"/>
		</g>
	</g>
	<g>
		<g>
			<path class="st0" d="M481.6,217.6h-36.2c-6.7,0-12.1,5.4-12.1,12.1c0,6.7,5.4,12.1,12.1,12.1h36.2c6.7,0,12.1-5.4,12.1-12.1
				C493.7,223,488.3,217.6,481.6,217.6z"/>
		</g>
	</g>
</g>
</svg>
