<?xml version="1.0" encoding="utf-8"?>
<!-- Generator: Adobe Illustrator 22.1.0, SVG Export Plug-In . SVG Version: 6.00 Build 0)  -->
<svg version="1.1" id="Layer_1" xmlns="http://www.w3.org/2000/svg" xmlns:xlink="http://www.w3.org/1999/xlink" x="0px" y="0px"
	 viewBox="0 0 500 500" style="enable-background:new 0 0 500 500;" xml:space="preserve">
<style type="text/css">
	.st0{fill:#29ABE2;}
	.st1{fill:#FFFFFF;}
</style>
<g>
	<g>
		<circle class="st0" cx="250" cy="250" r="239.7"/>
		<g>
			<path id="LinkedIn_7_" class="st1" d="M361.8,274.1v82.4h-47.7v-76.8c0-19.3-6.9-32.5-24.2-32.5c-13.2,0-21,8.9-24.5,17.5
				c-1.3,3.1-1.6,7.3-1.6,11.6v80.2h-47.8c0,0,0.6-130.1,0-143.6h47.8v20.4c-0.1,0.2-0.2,0.3-0.3,0.5h0.3v-0.5
				c6.3-9.8,17.7-23.7,43-23.7C338.3,209.4,361.8,230,361.8,274.1z M166.1,143.6c-16.3,0-27,10.7-27,24.8
				c0,13.8,10.4,24.8,26.4,24.8h0.3c16.7,0,27-11,27-24.8C192.5,154.3,182.5,143.6,166.1,143.6z M141.9,356.4h47.7V212.8h-47.7
				V356.4z"/>
		</g>
	</g>
</g>
</svg>
