<?xml version="1.0" encoding="utf-8"?>
<!-- Generator: Adobe Illustrator 22.1.0, SVG Export Plug-In . SVG Version: 6.00 Build 0)  -->
<svg version="1.1" id="Layer_1" xmlns="http://www.w3.org/2000/svg" xmlns:xlink="http://www.w3.org/1999/xlink" x="0px" y="0px"
	 viewBox="0 0 500 500" style="enable-background:new 0 0 500 500;" xml:space="preserve">
<style type="text/css">
	.st0{fill:#FFFFFF;}
</style>
<g>
	<g>
		<path class="st0" d="M28.7,5.6C25.2,2,19.9,0.8,15.3,2.7c-4.6,1.9-7.6,6.5-7.5,11.5v471.5c-0.2,6.7,5,12.2,11.7,12.4h460.3
			c5,0,9.5-3,11.4-7.6c1.9-4.6,0.9-9.9-2.6-13.5L28.7,5.6z M32.6,473.4v-63.3h18.2c6.9,0,12.4-5.6,12.4-12.4
			c0-6.9-5.6-12.4-12.4-12.4H32.6v-53.4h35c6.9,0,12.4-5.6,12.4-12.4c0-6.9-5.6-12.4-12.4-12.4h-35V255h18.2
			c6.9,0,12.4-5.6,12.4-12.4s-5.6-12.4-12.4-12.4H32.6V178h35c6.9,0,12.4-5.6,12.4-12.4c0-6.9-5.6-12.4-12.4-12.4h-35V44.7
			l417.7,428.6H32.6z"/>
		<path class="st0" d="M119.6,411.3h139.7c4.9-0.1,9.4-3,11.4-7.5c2-4.5,1.1-9.8-2.2-13.5L128.8,238.6c-3.5-3.8-8.9-5-13.7-3.2
			c-4.8,1.9-7.9,6.4-8,11.6v151.6C107.1,405.6,112.7,411.2,119.6,411.3z M131.9,278.8L231,386.5h-99.1V278.8z"/>
	</g>
</g>
</svg>
