<?xml version="1.0" encoding="utf-8"?>
<!-- Generator: Adobe Illustrator 22.1.0, SVG Export Plug-In . SVG Version: 6.00 Build 0)  -->
<svg version="1.1" id="Layer_1" xmlns="http://www.w3.org/2000/svg" xmlns:xlink="http://www.w3.org/1999/xlink" x="0px" y="0px"
	 viewBox="0 0 500 500" style="enable-background:new 0 0 500 500;" xml:space="preserve">
<style type="text/css">
	.st0{fill:#00D4D1;}
	.st1{fill:#FFFFFF;}
</style>
<g>
	<path class="st0" d="M250,497.6C113.5,497.6,2.4,386.5,2.4,250C2.4,113.5,113.5,2.4,250,2.4S497.6,113.5,497.6,250
		C497.6,386.5,386.5,497.6,250,497.6z"/>
</g>
<g>
	<g>
		<path class="st1" d="M156.7,112.8c-1.6-1.7-4.2-2.3-6.4-1.3c-2.2,0.9-3.6,3.1-3.6,5.5v225.2c-0.1,3.2,2.4,5.8,5.6,5.9h219.8
			c2.4,0,4.5-1.4,5.5-3.6c0.9-2.2,0.4-4.7-1.2-6.4L156.7,112.8z M158.6,336.2V306h8.7c3.3,0,5.9-2.7,5.9-5.9c0-3.3-2.7-5.9-5.9-5.9
			h-8.7v-25.5h16.7c3.3,0,5.9-2.7,5.9-5.9s-2.7-5.9-5.9-5.9h-16.7v-24.9h8.7c3.3,0,5.9-2.7,5.9-5.9c0-3.3-2.7-5.9-5.9-5.9h-8.7
			v-24.9h16.7c3.3,0,5.9-2.7,5.9-5.9c0-3.3-2.7-5.9-5.9-5.9h-16.7v-51.8L358,336.2H158.6z"/>
	</g>
	<g>
		<path class="st1" d="M200.1,306.6h66.7c2.4,0,4.5-1.4,5.4-3.6c0.9-2.2,0.5-4.7-1.1-6.4l-66.7-72.4c-1.7-1.8-4.3-2.4-6.5-1.5
			c-2.3,0.9-3.8,3.1-3.8,5.5v72.4C194.1,303.9,196.8,306.5,200.1,306.6z M206,243.3l47.3,51.4H206V243.3z"/>
	</g>
</g>
</svg>
