<?xml version="1.0" encoding="utf-8"?>
<!-- Generator: Adobe Illustrator 22.1.0, SVG Export Plug-In . SVG Version: 6.00 Build 0)  -->
<svg version="1.1" id="Layer_1" xmlns="http://www.w3.org/2000/svg" xmlns:xlink="http://www.w3.org/1999/xlink" x="0px" y="0px"
	 viewBox="0 0 500 500" style="enable-background:new 0 0 500 500;" xml:space="preserve">
<style type="text/css">
	.st0{fill:#FFFFFF;}
</style>
<g>
	<path class="st0" d="M388.7,481.7c-2.9,0-5.8-0.7-8.5-2.1L250,411.1l-130.3,68.5c-6.1,3.2-13.6,2.7-19.2-1.4
		c-5.6-4.1-8.4-11-7.2-17.8l24.9-145L12.8,212.6c-5-4.8-6.8-12.1-4.6-18.7c2.1-6.6,7.8-11.4,14.7-12.4l145.6-21.2l65.1-132
		c3.1-6.2,9.4-10.1,16.3-10.1c6.9,0,13.3,3.9,16.3,10.1l65.1,132l145.6,21.2c6.9,1,12.5,5.8,14.7,12.4c2.1,6.6,0.4,13.8-4.6,18.7
		L381.8,315.3l24.9,145c1.2,6.8-1.6,13.7-7.2,17.8C396.2,480.5,392.5,481.7,388.7,481.7z M250,372.3c2.9,0,5.8,0.7,8.5,2.1
		l106.1,55.8l-20.3-118.1c-1-5.9,1-11.9,5.2-16.1l85.8-83.6l-118.6-17.2c-5.9-0.9-11-4.6-13.7-10L250,77.7l-53,107.5
		c-2.7,5.4-7.8,9.1-13.7,10L64.7,212.3l85.8,83.6c4.3,4.2,6.3,10.2,5.2,16.1l-20.3,118.1l106.1-55.8
		C244.2,373,247.1,372.3,250,372.3z"/>
</g>
</svg>
