<?xml version="1.0" encoding="utf-8"?>
<!-- Generator: Adobe Illustrator 22.1.0, SVG Export Plug-In . SVG Version: 6.00 Build 0)  -->
<svg version="1.1" id="Layer_1" xmlns="http://www.w3.org/2000/svg" xmlns:xlink="http://www.w3.org/1999/xlink" x="0px" y="0px"
	 viewBox="0 0 500 500" style="enable-background:new 0 0 500 500;" xml:space="preserve">
<style type="text/css">
	.st0{fill:#808080;}
</style>
<g>
	<g>
		<path class="st0" d="M250,491.7C116.7,491.7,8.3,383.3,8.3,250C8.3,116.7,116.7,8.3,250,8.3c133.3,0,241.7,108.4,241.7,241.7
			C491.7,383.3,383.3,491.7,250,491.7z M250,19.3C122.8,19.3,19.3,122.8,19.3,250c0,127.2,103.5,230.7,230.7,230.7
			c127.2,0,230.7-103.5,230.7-230.7C480.7,122.8,377.2,19.3,250,19.3z"/>
	</g>
	<g>
		<g>
			<path class="st0" d="M127.8,207.1c-24.1,0-43.8,19.6-43.8,43.8s19.6,43.8,43.8,43.8s43.8-19.6,43.8-43.8S151.9,207.1,127.8,207.1
				z M127.8,283.7c-18.1,0-32.8-14.7-32.8-32.8s14.7-32.8,32.8-32.8s32.8,14.7,32.8,32.8S145.8,283.7,127.8,283.7z"/>
		</g>
		<g>
			<path class="st0" d="M368.4,207.1c-24.1,0-43.8,19.6-43.8,43.8s19.6,43.8,43.8,43.8c24.1,0,43.8-19.6,43.8-43.8
				S392.5,207.1,368.4,207.1z M368.4,283.7c-18.1,0-32.8-14.7-32.8-32.8s14.7-32.8,32.8-32.8c18.1,0,32.8,14.7,32.8,32.8
				S386.5,283.7,368.4,283.7z"/>
		</g>
		<g>
			<path class="st0" d="M248.1,207.1c-24.1,0-43.8,19.6-43.8,43.8s19.6,43.8,43.8,43.8s43.8-19.6,43.8-43.8S272.2,207.1,248.1,207.1
				z M248.1,283.7c-18.1,0-32.8-14.7-32.8-32.8s14.7-32.8,32.8-32.8s32.8,14.7,32.8,32.8S266.2,283.7,248.1,283.7z"/>
		</g>
	</g>
</g>
</svg>
