<?xml version="1.0" encoding="utf-8"?>
<!-- Generator: Adobe Illustrator 22.1.0, SVG Export Plug-In . SVG Version: 6.00 Build 0)  -->
<svg version="1.1" id="Layer_1" xmlns="http://www.w3.org/2000/svg" xmlns:xlink="http://www.w3.org/1999/xlink" x="0px" y="0px"
	 viewBox="0 0 500 500" style="enable-background:new 0 0 500 500;" xml:space="preserve">
<style type="text/css">
	.st0{fill:url(#SVGID_1_);}
	.st1{fill:url(#SVGID_2_);}
</style>
<g>
	<g>
		<g>
			<g>
				<linearGradient id="SVGID_1_" gradientUnits="userSpaceOnUse" x1="201.254" y1="260.3663" x2="323.6327" y2="260.3663">
					<stop  offset="0" style="stop-color:#FF626B"/>
					<stop  offset="1" style="stop-color:#F6AE04"/>
				</linearGradient>
				<path class="st0" d="M262.4,199.2c-33.7,0-61.2,27.4-61.2,61.2c0,33.7,27.4,61.2,61.2,61.2c33.7,0,61.2-27.4,61.2-61.2
					C323.6,226.6,296.2,199.2,262.4,199.2z M262.4,298.4c-21,0-38-17.1-38-38c0-21,17.1-38,38-38c21,0,38,17.1,38,38
					S283.4,298.4,262.4,298.4z"/>
			</g>
		</g>
	</g>
	<g>
		<g>
			<g>
				<linearGradient id="SVGID_2_" gradientUnits="userSpaceOnUse" x1="12.3333" y1="250" x2="487.6667" y2="250">
					<stop  offset="0" style="stop-color:#FF626B"/>
					<stop  offset="1" style="stop-color:#F6AE04"/>
				</linearGradient>
				<path class="st1" d="M486.1,154.6c4.5-33.1-0.7-61.3-15-82.1c2.3-5.2,3.7-10.9,3.7-16.9c0-22.7-18.5-41.2-41.2-41.2
					c-15.3,0-28.7,8.4-35.8,20.9C359,33.4,311.6,47.6,262.4,76C178.5,27.5,102.6,21.7,63.2,61.1c-17.1,17.1-26,41.6-26,71.2
					c-14.6,6.3-24.9,20.9-24.9,37.8c0,22.7,18.5,41.2,41.2,41.2c0.2,0,0.5,0,0.7,0c6.3,16.1,14.3,32.5,23.9,49.1
					c-48.5,83.9-54.3,159.8-14.9,199.2c17.4,17.4,41.9,26,71,26c36.9,0,81.3-13.8,128.2-40.9c46.9,27.1,91.3,40.9,128.2,40.9
					c29.2,0,53.7-8.6,71.1-26c39.4-39.4,33.6-115.4-14.9-199.3C468.1,223.4,481.7,187,486.1,154.6z M433.6,37.6c9.9,0,18,8.1,18,18
					s-8.1,18-18,18c-9.9,0-18-8.1-18-18S423.7,37.6,433.6,37.6z M392.6,58.3c1.4,21.4,19.3,38.4,41.1,38.4c7.9,0,15.3-2.2,21.5-6.1
					c8.6,15.6,11.3,36.3,8,60.8c-3.6,26.3-14,55.9-30.3,86.4c-18.6-28.2-41-55.4-66.7-81.2c-25.7-25.7-53-48.1-81.2-66.7
					C324.5,68.8,361.8,57.8,392.6,58.3z M53.5,188.2c-9.9,0-18-8.1-18-18c0-9.9,8.1-18,18-18s18,8.1,18,18
					C71.5,180.1,63.4,188.2,53.5,188.2z M76.4,204.3c11-7.4,18.3-20,18.3-34.2c0-20.3-14.8-37.3-34.2-40.6
					c0.5-22.1,7-39.9,19.2-52.1c29.6-29.6,91.4-24.4,160.3,12.5c-28.2,18.6-55.5,41-81.2,66.7c-25.7,25.7-48.1,52.9-66.7,81.2
					C86,226.5,80.8,215.3,76.4,204.3z M79.6,443.2C50,413.6,55.2,351.9,92,282.9c18.6,28.2,41,55.5,66.7,81.2
					c25.7,25.7,52.9,48.1,81.2,66.7C170.9,467.6,109.2,472.9,79.6,443.2z M175.1,347.7c-27.6-27.6-51.1-56.9-70-87.3
					c18.9-30.4,42.4-59.8,70-87.3c27.6-27.6,56.9-51.1,87.3-70c30.4,18.9,59.8,42.4,87.3,70c27.6,27.6,51.1,56.9,70,87.3
					c-18.9,30.4-42.4,59.8-70,87.3c-27.6,27.6-56.9,51.1-87.3,70C232,398.8,202.7,375.3,175.1,347.7z M445.3,443.2
					c-29.6,29.6-91.4,24.4-160.3-12.5c28.2-18.6,55.5-41,81.2-66.7c25.7-25.7,48.1-53,66.7-81.2
					C469.7,351.9,474.9,413.6,445.3,443.2z"/>
			</g>
		</g>
	</g>
</g>
</svg>
