<?xml version="1.0" encoding="utf-8"?>
<!-- Generator: Adobe Illustrator 22.1.0, SVG Export Plug-In . SVG Version: 6.00 Build 0)  -->
<svg version="1.1" id="Layer_1" xmlns="http://www.w3.org/2000/svg" xmlns:xlink="http://www.w3.org/1999/xlink" x="0px" y="0px"
	 viewBox="0 0 500 500" style="enable-background:new 0 0 500 500;" xml:space="preserve">
<style type="text/css">
	.st0{fill:#00A99D;}
	.st1{fill:#FFFFFF;}
</style>
<g>
	<g>
		<path class="st0" d="M250,491.7C116.7,491.7,8.3,383.3,8.3,250S116.7,8.3,250,8.3S491.7,116.7,491.7,250S383.3,491.7,250,491.7z"
			/>
	</g>
	<g>
		<g>
			<g>
				<g>
					<path class="st1" d="M243.4,217.6c-17.1,0-31,13.9-31,31c0,17.1,13.9,31,31,31c17.1,0,31-13.9,31-31
						C274.4,231.5,260.5,217.6,243.4,217.6z M243.4,267.8c-10.6,0-19.3-8.6-19.3-19.3s8.6-19.3,19.3-19.3c10.6,0,19.3,8.6,19.3,19.3
						C262.7,259.2,254.1,267.8,243.4,267.8z"/>
				</g>
			</g>
		</g>
		<g>
			<g>
				<g>
					<path class="st1" d="M356.7,195c2.3-16.8-0.3-31-7.6-41.6c1.2-2.6,1.8-5.5,1.8-8.6c0-11.5-9.3-20.8-20.8-20.8
						c-7.8,0-14.5,4.3-18.1,10.6c-19.6-1-43.7,6.2-68.5,20.6c-42.5-24.5-80.9-27.5-100.9-7.5c-8.7,8.7-13.2,21.1-13.1,36.1
						c-7.4,3.2-12.6,10.6-12.6,19.1c0,11.5,9.3,20.8,20.8,20.8c0.1,0,0.2,0,0.4,0c3.2,8.1,7.3,16.5,12.1,24.8
						c-24.5,42.5-27.5,80.9-7.5,100.9c8.8,8.8,21.2,13.2,36,13.2c18.7,0,41.2-7,64.9-20.7c23.7,13.7,46.2,20.7,64.9,20.7
						c14.8,0,27.2-4.3,36-13.1c20-20,17-58.4-7.6-100.9C347.6,229.9,354.4,211.4,356.7,195z M330.1,135.8c5,0,9.1,4.1,9.1,9.1
						s-4.1,9.1-9.1,9.1s-9.1-4.1-9.1-9.1S325.1,135.8,330.1,135.8z M309.3,146.3c0.7,10.8,9.8,19.5,20.8,19.5c4,0,7.7-1.1,10.9-3.1
						c4.3,7.9,5.7,18.4,4.1,30.8c-1.8,13.3-7.1,28.3-15.3,43.7c-9.4-14.3-20.7-28.1-33.8-41.1c-13-13-26.8-24.3-41.1-33.8
						C274.9,151.6,293.8,146,309.3,146.3z M137.7,212c-5,0-9.1-4.1-9.1-9.1c0-5,4.1-9.1,9.1-9.1s9.1,4.1,9.1,9.1
						C146.8,207.9,142.7,212,137.7,212z M149.2,220.2c5.6-3.7,9.3-10.1,9.3-17.3c0-10.3-7.5-18.9-17.3-20.5
						c0.2-11.2,3.5-20.2,9.7-26.4c15-15,46.3-12.4,81.2,6.3c-14.3,9.4-28.1,20.7-41.1,33.8c-13,13-24.3,26.8-33.8,41.1
						C154.1,231.4,151.5,225.8,149.2,220.2z M150.9,341.1c-15-15-12.4-46.3,6.3-81.2c9.4,14.3,20.7,28.1,33.8,41.1
						c13,13,26.8,24.3,41.1,33.8C197.1,353.5,165.8,356.1,150.9,341.1z M199.2,292.8c-14-14-25.9-28.8-35.4-44.2
						c9.6-15.4,21.5-30.3,35.4-44.2c14-14,28.8-25.9,44.2-35.4c15.4,9.6,30.3,21.5,44.2,35.4c14,14,25.9,28.8,35.4,44.2
						c-9.6,15.4-21.5,30.3-35.4,44.2c-14,14-28.8,25.9-44.2,35.4C228,318.7,213.2,306.7,199.2,292.8z M336,341.1
						c-15,15-46.3,12.4-81.2-6.3c14.3-9.4,28.1-20.7,41.1-33.8c13-13,24.3-26.8,33.8-41.1C348.4,294.9,351,326.2,336,341.1z"/>
				</g>
			</g>
		</g>
	</g>
</g>
</svg>
