<?xml version="1.0" encoding="utf-8"?>
<!-- Generator: Adobe Illustrator 22.1.0, SVG Export Plug-In . SVG Version: 6.00 Build 0)  -->
<svg version="1.1" id="Layer_1" xmlns="http://www.w3.org/2000/svg" xmlns:xlink="http://www.w3.org/1999/xlink" x="0px" y="0px"
	 viewBox="0 0 500 500" style="enable-background:new 0 0 500 500;" xml:space="preserve">
<style type="text/css">
	.st0{fill:#FFFFFF;}
</style>
<g>
	<g>
		<path class="st0" d="M422.1,190.5l-3.5,0c-48.4,0-91.9,27-114,69.4c-13.9-6.3-29-9.8-44.7-9.8c-26,0-50.4,9.3-69.7,25.4
			c-0.4-17-2.6-34-4.8-49.1c-1.9-12.9-3.6-25.4-3.8-35.8l50.1,0c7.9,0,15.4-3.1,21-8.7l39.7-39.7c11.3-11.3,11.4-29.5,0.6-41.2
			c3.8-5.7,5.6-12.5,4.9-19.4c-0.9-8.9-5.7-16.9-13.1-21.8l-24.1-16c-11.6-7.8-25.2-11.9-39.2-11.9c-29.2,0-56.6,11.4-77.2,32
			c-38,38-67.9,81.5-88.9,129.3c-25.3,57.6-38.1,100.1-38.1,126.3c0,15-1.3,27.2-3.9,36.3c-5.5,19.3,3.1,39.9,21,50.1
			c71.4,40.8,152.7,62.4,235,62.4h14.3c51,0,101.4-8.2,149.8-24.3l6.9-2.3c28.4-9.5,47.5-35.9,47.5-65.9V260
			C488.1,222.7,458.5,191.5,422.1,190.5z M468.2,375.7c0,21.4-13.6,40.3-33.9,47l-6.9,2.3c-46.3,15.4-94.6,23.3-143.5,23.3h-14.3
			c-78.8,0-156.7-20.7-225.1-59.8c-9.9-5.7-14.7-17-11.7-27.5c3.1-10.8,4.6-24.8,4.6-41.7c0-23.1,12.6-64,36.5-118.3
			c20-45.6,48.5-87,84.8-123.3c16.9-16.9,39.3-26.2,63.2-26.2c10.1,0,19.8,3,28.2,8.5l24.1,16c2.5,1.7,4.1,4.3,4.4,7.3
			c0.3,3-0.7,5.9-2.8,8l-31.7,31.7c-3.4,3.4-8.6,4.2-12.8,2.1c-3.2-1.6-5.4-4.6-6-8.2c-0.6-3.6,0.6-7.1,3.1-9.6l9.1-9.1
			c3.9-3.9,3.9-10.2,0-14c-3.9-3.9-10.2-3.9-14,0l-9.1,9.1c-7.1,7.1-10.3,16.9-8.7,26.9c1.6,9.9,7.7,18.2,16.7,22.7
			c11.9,5.9,26.3,3.6,35.7-5.8l21.7-21.7c2.7,3.9,2.5,9.1-1,12.6l-39.7,39.7c-1.9,1.9-4.4,2.9-7,2.9l-46.3,0c0.6-1,1.2-2.1,2-2.9
			c3.9-3.9,3.9-10.2,0-14c-3.9-3.9-10.2-3.9-14,0c-16.2,16.2-12.3,43.6-7.7,75.4c2.4,16.5,4.8,33.5,4.8,50.6
			c0,40.9-30.9,49.6-32.2,49.9c-5.3,1.4-8.5,6.7-7.1,12c1.1,4.5,5.2,7.5,9.6,7.5c0.8,0,1.6-0.1,2.4-0.3c11.9-3,31.3-14.4,41.1-37.7
			c0.1-0.2,0.4-0.2,0.5-0.4c16.5-25.6,44.6-40.9,75-40.9c23.7,0,46,9.2,62.8,25.9c3.9,3.9,10.2,3.8,14-0.1c3.9-3.9,3.8-10.2-0.1-14
			c-4.6-4.5-9.6-8.5-14.8-12.1c18.6-36.1,55.6-59.2,96.7-59.2l2.9,0c25.7,0.7,46.7,22.9,46.7,49.6L468.2,375.7L468.2,375.7z"/>
	</g>
</g>
</svg>
