<?xml version="1.0" encoding="utf-8"?>
<!-- Generator: Adobe Illustrator 22.1.0, SVG Export Plug-In . SVG Version: 6.00 Build 0)  -->
<svg version="1.1" id="Layer_1" xmlns="http://www.w3.org/2000/svg" xmlns:xlink="http://www.w3.org/1999/xlink" x="0px" y="0px"
	 viewBox="0 0 500 500" style="enable-background:new 0 0 500 500;" xml:space="preserve">
<style type="text/css">
	.st0{fill:#FF626B;}
</style>
<path class="st0" d="M467.5,440.9l-110.6-115c28.4-33.8,44-76.3,44-120.6c0-103.5-84.2-187.6-187.6-187.6S25.7,101.8,25.7,205.3
	s84.2,187.6,187.6,187.6c38.8,0,75.9-11.7,107.5-34l111.4,115.9c4.7,4.8,10.9,7.5,17.6,7.5c6.4,0,12.4-2.4,17-6.8
	C476.6,466.2,476.9,450.7,467.5,440.9z M213.3,66.6c76.5,0,138.7,62.2,138.7,138.7S289.8,344,213.3,344S74.6,281.7,74.6,205.3
	S136.8,66.6,213.3,66.6z"/>
</svg>
