<?xml version="1.0" encoding="utf-8"?>
<!-- Generator: Adobe Illustrator 22.1.0, SVG Export Plug-In . SVG Version: 6.00 Build 0)  -->
<svg version="1.1" id="Layer_1" xmlns="http://www.w3.org/2000/svg" xmlns:xlink="http://www.w3.org/1999/xlink" x="0px" y="0px"
	 viewBox="0 0 500 500" style="enable-background:new 0 0 500 500;" xml:space="preserve">
<style type="text/css">
	.st0{fill:#FFFFFF;}
</style>
<g>
	<path class="st0" d="M390.9,318.7c-27.7,0-52.4,13.2-68.3,33.6l-132.4-74c3.1-8.9,4.8-18.5,4.8-28.4c0-10-1.7-19.5-4.9-28.5
		l132.3-73.9c15.7,20.5,40.5,33.8,68.4,33.8c47.4,0,86.2-38.6,86.2-86.2S438.4,9,390.8,9s-86.2,38.6-86.2,86.2
		c0,10,1.7,19.6,4.9,28.5l-132.2,73.9c-15.7-20.6-40.5-33.8-68.4-33.8c-47.4,0-86.2,38.6-86.2,86.2s38.7,86.2,86.3,86.2
		c27.8,0,52.6-13.3,68.5-33.9l132.3,74c-3.2,9-5,18.7-5,28.7c0,47.4,38.6,86.2,86.2,86.2s86.2-38.6,86.2-86.2
		S438.5,318.7,390.9,318.7z M390.9,36.1c32.6,0,59.1,26.5,59.1,59.1s-26.5,59.1-59.1,59.1s-59.1-26.5-59.1-59.1
		S358.4,36.1,390.9,36.1z M109.1,309c-32.6,0-59.1-26.5-59.1-59.1s26.5-59.1,59.1-59.1s59.1,26.5,59.1,59.1S141.6,309,109.1,309z
		 M390.9,463.9c-32.6,0-59.1-26.5-59.1-59.1s26.5-59.1,59.1-59.1s59.1,26.5,59.1,59.1S423.5,463.9,390.9,463.9z"/>
</g>
</svg>
