<?xml version="1.0" encoding="utf-8"?>
<!-- Generator: Adobe Illustrator 22.1.0, SVG Export Plug-In . SVG Version: 6.00 Build 0)  -->
<svg version="1.1" id="Layer_1" xmlns="http://www.w3.org/2000/svg" xmlns:xlink="http://www.w3.org/1999/xlink" x="0px" y="0px"
	 viewBox="0 0 500 500" style="enable-background:new 0 0 500 500;" xml:space="preserve">
<style type="text/css">
	.st0{fill:#FF626B;}
	.st1{fill:#FFFFFF;}
</style>
<g>
	<circle class="st0" cx="250" cy="250" r="239.7"/>
	<g>
		<path class="st1" d="M351,272.9c1.8-7.7,2.7-15.5,2.7-23.3c0-36.3-18.5-69.3-49.4-88.4c-1.9-1.2-4.3-0.6-5.5,1.3
			c-1.2,1.9-0.6,4.3,1.3,5.5c28.6,17.6,45.6,48.1,45.6,81.6c0,6.9-0.8,13.8-2.3,20.5c-1.8-0.4-3.7-0.6-5.7-0.6
			c-15.4,0-27.9,12.5-27.9,27.9c0,15.4,12.5,27.9,27.9,27.9s27.9-12.5,27.9-27.9C365.7,286.8,359.8,277.6,351,272.9z M337.8,317.4
			c-11,0-19.9-8.9-19.9-19.9c0-11,8.9-19.9,19.9-19.9c11,0,19.9,8.9,19.9,19.9C357.7,308.4,348.8,317.4,337.8,317.4z"/>
		<path class="st1" d="M286.6,338.1c-11.6,4.8-23.9,7.3-36.6,7.3c-25.5,0-50-10.3-67.9-28.3c5-5,8-12,8-19.6
			c0-15.4-12.5-27.9-27.9-27.9s-27.9,12.5-27.9,27.9c0,15.4,12.5,27.9,27.9,27.9c4.9,0,9.5-1.3,13.5-3.5
			c19.5,20,46.3,31.4,74.3,31.4c13.7,0,27-2.6,39.6-7.9c2-0.8,3-3.2,2.2-5.2C291,338.2,288.6,337.2,286.6,338.1z M142.3,297.4
			c0-11,8.9-19.9,19.9-19.9s19.9,8.9,19.9,19.9c0,11-8.9,19.9-19.9,19.9S142.3,308.4,142.3,297.4z"/>
		<path class="st1" d="M150.3,246.4c0.1,0,0.2,0,0.3,0c2.1,0,3.8-1.6,4-3.7c2.8-40.3,30.3-73.9,68.7-85
			c3.4,11.6,14.1,20.1,26.8,20.1c15.4,0,27.9-12.5,27.9-27.9s-12.5-27.9-27.9-27.9c-15.4,0-27.9,12.5-27.9,27.8
			c-42.2,11.8-72.4,48.5-75.5,92.4C146.4,244.4,148.1,246.3,150.3,246.4z M250,129.9c11,0,19.9,8.9,19.9,19.9s-8.9,19.9-19.9,19.9
			c-11,0-19.9-8.9-19.9-19.9S239,129.9,250,129.9z"/>
	</g>
</g>
</svg>
