<?xml version="1.0" encoding="utf-8"?>
<!-- Generator: Adobe Illustrator 22.1.0, SVG Export Plug-In . SVG Version: 6.00 Build 0)  -->
<svg version="1.1" id="Layer_1" xmlns="http://www.w3.org/2000/svg" xmlns:xlink="http://www.w3.org/1999/xlink" x="0px" y="0px"
	 viewBox="0 0 500 500" style="enable-background:new 0 0 500 500;" xml:space="preserve">
<style type="text/css">
	.st0{fill:url(#SVGID_1_);}
</style>
<linearGradient id="SVGID_1_" gradientUnits="userSpaceOnUse" x1="6.3333" y1="250" x2="493.6667" y2="250">
	<stop  offset="0" style="stop-color:#FF626B"/>
	<stop  offset="1" style="stop-color:#F6AE04"/>
</linearGradient>
<path class="st0" d="M250,6.3C115.4,6.3,6.3,115.4,6.3,250S115.4,493.7,250,493.7S493.7,384.6,493.7,250
	C493.5,115.5,384.5,6.5,250,6.3z M258.7,76.6l84.7-33.9c9.6,4.4,18.9,9.4,27.8,15l0.2,0.1c8.8,5.6,17.1,11.7,25.1,18.4l0.7,0.6
	c3.6,3,7,6.2,10.4,9.4c0.4,0.4,0.9,0.8,1.3,1.2c3.5,3.4,6.9,7,10.2,10.6c0.3,0.3,0.5,0.6,0.8,0.9c2.9,3.2,5.7,6.6,8.4,10
	c0.7,0.8,1.3,1.6,1.9,2.4c2.9,3.8,5.8,7.7,8.5,11.7L421.8,195l-83.1,27.7l-80-64L258.7,76.6z M69.7,111.6c0.6-0.8,1.3-1.6,1.9-2.4
	c2.7-3.4,5.4-6.7,8.3-9.9c0.3-0.3,0.6-0.7,0.9-1c3.3-3.7,6.7-7.2,10.2-10.6c0.4-0.4,0.8-0.8,1.2-1.2c3.3-3.2,6.8-6.3,10.3-9.3
	l0.8-0.7c7.9-6.6,16.2-12.7,24.8-18.3l0.3-0.2c8.9-5.6,18.1-10.6,27.7-15l85.1,33.7v82l-80,64L78.2,195l-16.9-71.8
	C64,119.2,66.8,115.4,69.7,111.6z M59.9,374.6c-2.4-3.6-4.7-7.3-6.8-11.1l-0.5-0.9c-2.2-3.8-4.2-7.6-6.1-11.5l-0.1-0.1
	c-4.1-8.2-7.6-16.6-10.7-25.2v-0.1c-1.4-4.1-2.8-8.2-4-12.4l-0.4-1.5c-1.1-3.9-2.1-7.9-3-11.9c-0.1-0.4-0.2-0.8-0.3-1.2
	c-2-9.1-3.4-18.3-4.3-27.5l49.6-59.5l82.5,27.5l23.9,95.8l-39.3,52.4L59.9,374.6z M304.1,470.9c-4.1,1-8.2,1.9-12.4,2.7
	c-0.6,0.1-1.2,0.2-1.8,0.3c-3.5,0.6-7.1,1.2-10.7,1.6c-1,0.1-1.9,0.3-2.9,0.4c-3.3,0.4-6.7,0.7-10.1,0.9c-1.1,0.1-2.1,0.2-3.2,0.2
	c-4.3,0.3-8.7,0.4-13.1,0.4c-4,0-8-0.1-12-0.3c-0.5,0-0.9-0.1-1.4-0.1c-3.5-0.2-7.1-0.5-10.6-0.8l-0.4-0.1
	c-7.7-0.8-15.3-2.1-22.9-3.7l-48-75.2l38.7-51.6h113.2l39.4,52L304.1,470.9z M472.1,298.7c-0.1,0.4-0.2,0.8-0.3,1.2
	c-0.9,4-1.9,8-3,11.9l-0.4,1.5c-1.2,4.2-2.5,8.3-4,12.4v0.1c-3.1,8.6-6.6,17-10.7,25.2l-0.1,0.1c-1.9,3.9-4,7.7-6.1,11.5l-0.5,0.9
	c-2.2,3.8-4.4,7.5-6.8,11.1L360,387.3L320.4,335l23.9-95.8l82.5-27.5l49.6,59.5C475.5,280.5,474.1,289.7,472.1,298.7z"/>
</svg>
