<?xml version="1.0" encoding="utf-8"?>
<!-- Generator: Adobe Illustrator 22.1.0, SVG Export Plug-In . SVG Version: 6.00 Build 0)  -->
<svg version="1.1" id="Layer_1" xmlns="http://www.w3.org/2000/svg" xmlns:xlink="http://www.w3.org/1999/xlink" x="0px" y="0px"
	 viewBox="0 0 500 500" style="enable-background:new 0 0 500 500;" xml:space="preserve">
<style type="text/css">
	.st0{fill:#FFFFFF;}
</style>
<g>
	<g>
		<path d="M250,495C114.9,495,5,385.1,5,250C5,114.9,114.9,5,250,5c135.1,0,245,109.9,245,245C495,385.1,385.1,495,250,495z"/>
	</g>
	<g>
		<path class="st0" d="M248.4,98.2c-82.3,0-149,66.7-149,149s66.7,149,149,149s149-66.7,149-149C397.3,165,330.7,98.3,248.4,98.2z
			 M253.7,141.2l51.8-20.7c5.9,2.7,11.6,5.7,17,9.2l0.1,0.1c5.4,3.4,10.5,7.2,15.3,11.2l0.4,0.4c2.2,1.9,4.3,3.8,6.3,5.8
			c0.3,0.3,0.5,0.5,0.8,0.8c2.2,2.1,4.2,4.3,6.3,6.5c0.2,0.2,0.3,0.4,0.5,0.6c1.8,2,3.5,4,5.1,6.1c0.4,0.5,0.8,1,1.2,1.5
			c1.8,2.3,3.5,4.7,5.2,7.1l-10.3,43.9l-50.8,16.9l-48.9-39.2L253.7,141.2z M138.1,162.6c0.4-0.5,0.8-1,1.2-1.5
			c1.6-2.1,3.3-4.1,5.1-6.1c0.2-0.2,0.4-0.4,0.6-0.6c2-2.2,4.1-4.4,6.2-6.5c0.2-0.2,0.5-0.5,0.8-0.7c2-2,4.1-3.9,6.3-5.7l0.5-0.4
			c4.8-4.1,9.9-7.8,15.2-11.2l0.2-0.1c5.4-3.4,11.1-6.5,16.9-9.2l52,20.6v50.2l-48.9,39.2l-50.8-16.9L133,169.7
			C134.6,167.2,136.4,164.9,138.1,162.6z M132.2,323.4c-1.5-2.2-2.9-4.5-4.2-6.8l-0.3-0.6c-1.3-2.3-2.6-4.6-3.8-7l0-0.1
			c-2.5-5-4.7-10.1-6.5-15.4v0c-0.9-2.5-1.7-5-2.4-7.6l-0.3-0.9c-0.7-2.4-1.3-4.8-1.9-7.3c0-0.2-0.1-0.5-0.2-0.7
			c-1.2-5.5-2.1-11.2-2.6-16.8l30.3-36.4l50.5,16.8l14.6,58.6l-24.1,32L132.2,323.4z M281.5,382.3c-2.5,0.6-5,1.1-7.6,1.6
			c-0.4,0.1-0.7,0.1-1.1,0.2c-2.2,0.4-4.4,0.7-6.6,1c-0.6,0.1-1.2,0.2-1.8,0.2c-2,0.2-4.1,0.4-6.2,0.6c-0.7,0-1.3,0.1-1.9,0.2
			c-2.6,0.2-5.3,0.3-8,0.3c-2.5,0-4.9-0.1-7.3-0.2c-0.3,0-0.6,0-0.9-0.1c-2.2-0.1-4.3-0.3-6.5-0.5l-0.2,0c-4.7-0.5-9.4-1.3-14-2.2
			l-29.4-46l23.7-31.6H283l24.1,31.8L281.5,382.3z M384.2,277c-0.1,0.2-0.1,0.5-0.2,0.7c-0.6,2.5-1.2,4.9-1.9,7.3L382,286
			c-0.7,2.6-1.5,5.1-2.4,7.6v0c-1.9,5.3-4.1,10.4-6.5,15.4l0,0.1c-1.2,2.4-2.4,4.7-3.8,7l-0.3,0.6c-1.3,2.3-2.7,4.6-4.2,6.8l-49,7.7
			l-24.2-32l14.6-58.6l50.5-16.8l30.3,36.4C386.3,265.9,385.5,271.5,384.2,277z"/>
	</g>
</g>
</svg>
