<?xml version="1.0" encoding="utf-8"?>
<!-- Generator: Adobe Illustrator 22.1.0, SVG Export Plug-In . SVG Version: 6.00 Build 0)  -->
<svg version="1.1" id="Layer_1" xmlns="http://www.w3.org/2000/svg" xmlns:xlink="http://www.w3.org/1999/xlink" x="0px" y="0px"
	 viewBox="0 0 500 500" style="enable-background:new 0 0 500 500;" xml:space="preserve">
<style type="text/css">
	.st0{fill:#ED1C24;}
</style>
<g>
	<g>
		<path class="st0" d="M250,493.7C115.6,493.7,6.3,384.4,6.3,250C6.3,115.6,115.6,6.3,250,6.3c134.4,0,243.7,109.3,243.7,243.7
			C493.7,384.4,384.4,493.7,250,493.7z M250,17.4C121.7,17.4,17.4,121.7,17.4,250c0,128.3,104.4,232.6,232.6,232.6
			c128.3,0,232.6-104.4,232.6-232.6C482.6,121.7,378.3,17.4,250,17.4z"/>
	</g>
	<g>
		<g>
			<path class="st0" d="M374.5,352.7V171.4h-55.8v181.3h-13.9V208.6H249v144.1H235V245.8h-55.8v106.9h-13.9v-65.1h-55.8v65.1h-4.6
				c-2.6,0-4.6,2.1-4.6,4.6c0,2.6,2.1,4.6,4.6,4.6h4.6h55.8h13.9H235H249h55.8h13.9h55.8c2.6,0,4.6-2.1,4.6-4.6
				C379.2,354.8,377.1,352.7,374.5,352.7z M118.8,352.7v-55.8H156v55.8H118.8z M188.5,352.7v-97.6h37.2v97.6H188.5z M258.3,352.7
				V217.9h37.2v134.8H258.3z M328,352.7v-172h37.2v172H328z"/>
		</g>
		<g>
			<path class="st0" d="M137.5,224.1c0.8,0,1.6-0.2,2.3-0.6l168.6-97.4l-10.6,23.2c-1.1,2.3,0,5.1,2.3,6.2c0.6,0.3,1.3,0.4,1.9,0.4
				c1.8,0,3.5-1,4.2-2.7l16.6-36.4c0.1-0.1,0-0.2,0.1-0.4c0.1-0.2,0.2-0.5,0.2-0.7c0-0.1,0.1-0.2,0.1-0.4c0-0.1,0-0.1,0-0.2
				c0-0.2,0-0.3,0-0.5c0-0.3-0.1-0.5-0.1-0.8c0-0.2,0-0.4-0.1-0.5c-0.1-0.2-0.2-0.3-0.2-0.5c-0.1-0.1-0.1-0.2-0.1-0.3
				s-0.2-0.2-0.3-0.3c-0.1-0.1-0.2-0.3-0.3-0.4c-0.1-0.1-0.3-0.2-0.4-0.4c-0.2-0.2-0.4-0.3-0.6-0.5c-0.1-0.1-0.3-0.2-0.4-0.3
				c-0.1,0-0.1-0.1-0.1-0.1c-0.1-0.1-0.2,0-0.4-0.1c-0.3-0.1-0.5-0.2-0.8-0.2c-0.1,0-0.2-0.1-0.3-0.1l-39.8-3.9
				c-2.6-0.3-4.8,1.6-5.1,4.2c-0.3,2.6,1.6,4.8,4.2,5.1l25.4,2.5l-168.6,97.4c-2.2,1.3-3,4.1-1.7,6.4
				C134.4,223.2,135.9,224.1,137.5,224.1z"/>
		</g>
	</g>
</g>
</svg>
