<?xml version="1.0" encoding="utf-8"?>
<!-- Generator: Adobe Illustrator 22.1.0, SVG Export Plug-In . SVG Version: 6.00 Build 0)  -->
<svg version="1.1" id="Layer_1" xmlns="http://www.w3.org/2000/svg" xmlns:xlink="http://www.w3.org/1999/xlink" x="0px" y="0px"
	 viewBox="0 0 500 500" style="enable-background:new 0 0 500 500;" xml:space="preserve">
<style type="text/css">
	.st0{fill:#64D2F9;}
	.st1{fill:#FFFFFF;}
</style>
<g>
	<g>
		<circle class="st0" cx="250" cy="250" r="239.7"/>
		<g>
			<g>
				<path class="st1" d="M387.3,164.6c-10.1,4.5-21,7.5-32.4,8.9c11.7-7,20.6-18.1,24.8-31.2c-10.9,6.5-23,11.2-35.9,13.7
					c-10.3-11-25-17.8-41.2-17.8c-31.2,0-56.5,25.3-56.5,56.5c0,4.4,0.5,8.7,1.5,12.9c-46.9-2.4-88.6-24.8-116.4-59
					c-4.9,8.3-7.6,18-7.6,28.4c0,19.6,10,36.9,25.1,47c-9.3-0.3-18-2.9-25.6-7.1v0.7c0,27.4,19.5,50.2,45.3,55.4
					c-4.7,1.3-9.7,2-14.9,2c-3.6,0-7.2-0.4-10.6-1c7.2,22.5,28.1,38.8,52.8,39.2c-19.3,15.1-43.7,24.1-70.2,24.1
					c-4.6,0-9.1-0.3-13.5-0.8c25,16.1,54.7,25.4,86.6,25.4c103.9,0,160.7-86.1,160.7-160.7l-0.2-7.3
					C370.2,185.9,379.8,175.9,387.3,164.6z"/>
			</g>
		</g>
	</g>
</g>
</svg>
