<?xml version="1.0" encoding="utf-8"?>
<!-- Generator: Adobe Illustrator 22.1.0, SVG Export Plug-In . SVG Version: 6.00 Build 0)  -->
<svg version="1.1" id="Layer_1" xmlns="http://www.w3.org/2000/svg" xmlns:xlink="http://www.w3.org/1999/xlink" x="0px" y="0px"
	 viewBox="0 0 500 500" style="enable-background:new 0 0 500 500;" xml:space="preserve">
<style type="text/css">
	.st0{fill:#FFFFFF;}
</style>
<g>
	<g>
		<g>
			<path class="st0" d="M334.1,71.9c-5.8,0-10.5,4.7-10.5,10.5c0,5.8,4.7,10.5,10.5,10.5s10.5-4.7,10.5-10.5
				C344.6,76.6,339.9,71.9,334.1,71.9z"/>
		</g>
	</g>
	<g>
		<g>
			<path class="st0" d="M439.1,247c-11.9-42.7-63.7-109.6-57.3-227c0.2-2.9-0.9-5.7-2.9-7.8c-2-2.1-4.7-3.3-7.6-3.3h-242
				c-2.9,0-5.6,1.2-7.6,3.3c-2,2.1-3,4.9-2.9,7.8c6.4,116.8-45.3,184.5-57.4,226.9c-21.9,76.5,13.8,175.3,63.8,240
				c2,2.6,5,4.1,8.3,4.1h233.6c3.2,0,6.3-1.5,8.3-4.1C423,425.4,460.2,322.5,439.1,247z M112.4,181c19.6-49.8,29-100.5,27.7-151.1
				h220.2c-1.2,50.5,8.1,101.3,27.7,151c0.8,2.1,1.7,4.2,2.6,6.4c-43.1,20.4-91.4,31.2-140.4,31.2s-97.3-10.8-140.4-31.2
				C110.7,185.3,111.6,183.1,112.4,181z M239.8,470H138.7c-54-72.1-70.1-154-59.8-206.4c56.7,21.8,110.5,68.7,160.9,106.9V470z
				 M84.6,243.3c3.5-9.8,7.9-18.9,12.8-29c1.2-2.6,2.5-5.2,3.8-7.8c45.8,21.6,97.1,33,149.1,33c51.9,0,103.2-11.4,149.1-33
				c1.3,2.7,2.5,5.3,3.8,7.8c4.9,10.2,9.3,19.3,12.8,29c-59.9,22.5-116.3,71.2-165.6,108.8C200.8,314.4,144.5,265.9,84.6,243.3z
				 M361.9,470H260.8v-99.6c50.7-38.4,104.1-85,160.7-106.8C433.9,329.9,401.4,416.6,361.9,470z"/>
		</g>
	</g>
	<g>
		<g>
			<path class="st0" d="M359.7,164c-4.6-14-8.4-28.2-11.4-42.1c-1.2-5.7-6.8-9.3-12.4-8c-5.7,1.2-9.3,6.8-8,12.4
				c3.2,14.7,7.2,29.6,12,44.2c1.8,5.5,7.7,8.5,13.2,6.7C358.5,175.4,361.5,169.5,359.7,164z"/>
		</g>
	</g>
</g>
</svg>
