<?xml version="1.0" encoding="utf-8"?>
<!-- Generator: Adobe Illustrator 22.1.0, SVG Export Plug-In . SVG Version: 6.00 Build 0)  -->
<svg version="1.1" id="Layer_1" xmlns="http://www.w3.org/2000/svg" xmlns:xlink="http://www.w3.org/1999/xlink" x="0px" y="0px"
	 viewBox="0 0 500 114" style="enable-background:new 0 0 500 114;" xml:space="preserve">
<style type="text/css">
	.st0{fill:url(#SVGID_1_);}
	.st1{fill:#FF626B;}
	.st2{fill:#999999;}
	.st3{fill:#666666;}
	.st4{fill:url(#SVGID_2_);}
	.st5{fill:#FFFFFF;}
</style>
<g>
	<g>
		<linearGradient id="SVGID_1_" gradientUnits="userSpaceOnUse" x1="18.813" y1="17.3702" x2="54.3767" y2="44.3124">
			<stop  offset="0" style="stop-color:#FF626B"/>
			<stop  offset="1" style="stop-color:#F6AE04"/>
		</linearGradient>
		<polygon class="st0" points="38.9,52.2 47.5,50.4 43,33.7 59.6,31.2 57.6,23.6 40.9,25.7 36.4,9.1 27.5,9.7 32.1,26.8 13,29.1 
			15.3,37.8 34.3,35 		"/>
		<polygon class="st1" points="48.9,55.5 40.3,57.4 53,104.9 126.6,76.6 124.8,70.2 59.1,93.5 		"/>
		<polygon class="st1" points="62.3,23 64.3,30.5 106.2,24.3 118.3,67.1 123.4,65.4 109.8,17.2 		"/>
		<polygon class="st2" points="53.5,49.2 106,38.5 103.2,28.6 50.3,37.3 		"/>
		<polygon class="st2" points="72.2,50.5 54.9,54.3 58.5,67.6 75.6,63 		"/>
		<polygon class="st2" points="63.3,85.2 80.2,79.6 76.8,67 59.7,71.9 		"/>
		<polygon class="st2" points="90.9,46.5 75.8,49.8 79.2,62.2 94.1,58.2 		"/>
		<polygon class="st2" points="83.7,78.6 98.5,73.7 95.2,62 80.3,66.2 		"/>
		<polygon class="st2" points="107.3,42.8 94,45.8 97.2,57.3 110.4,53.8 		"/>
		<polygon class="st2" points="101.5,72.7 114.5,68.4 111.4,57.4 98.3,61.1 		"/>
	</g>
	<g>
		<path class="st3" d="M141.1,71.3c0.1,6.2,5.2,11.2,11.4,11.2l17.5-0.2l0.1,6.3l-17.5,0.2c-9.7,0.1-17.6-7.7-17.7-17.4
			c-0.1-9.7,7.7-17.6,17.4-17.7l17.5-0.2l0.1,6.3l-17.5,0.2C146,60,141,65.1,141.1,71.3z"/>
		<path class="st3" d="M208.8,88.2l-7,0.1l-3.3-6.2l-7.8-15l-7.5,15.1l-3.1,6.3l-7,0.1l3.1-6.3l14.4-29l15,28.7L208.8,88.2z"/>
		<path class="st3" d="M239.4,81.7l0.1,6.3l-17.8,0.2c-1.8,0-3.4-0.4-4.9-1.1c-2.2-1.1-4-2.9-5.1-5.1c-0.8-1.5-1.2-3.1-1.2-4.9
			l-0.2-23.9l6.3-0.1l0.2,24.5c0.3,2.2,2.1,3.9,4.3,4.2L239.4,81.7z"/>
		<path class="st3" d="M246.2,70.3c0.1,6.2,5.2,11.2,11.4,11.2l17.5-0.2l0.1,6.3l-17.5,0.2c-9.7,0.1-17.6-7.7-17.7-17.4
			c-0.1-9.7,7.7-17.6,17.4-17.7l17.5-0.2l0.1,6.3l-17.5,0.2C251.1,59,246.1,64.1,246.2,70.3z"/>
		<path class="st3" d="M314.9,52.1l0.2,17.5c0.1,9.7-7.7,17.6-17.4,17.7C288,87.5,280.1,79.7,280,70l-0.2-17.5l6.3-0.1l0.2,17.5
			c0.1,6.2,5.2,11.2,11.4,11.2c6.2-0.1,11.2-5.2,11.2-11.4l-0.2-17.5L314.9,52.1z"/>
		<path class="st3" d="M349.1,80.7l0.1,6.3l-17.8,0.2c-1.8,0-3.4-0.4-4.9-1.1c-2.2-1.1-4-2.9-5.1-5.1c-0.8-1.5-1.2-3.1-1.2-4.9
			l-0.2-23.9l6.3-0.1l0.2,24.5c0.3,2.2,2.1,3.9,4.3,4.2L349.1,80.7z"/>
		<path class="st3" d="M387.9,86.5l-7,0.1l-3.3-6.2l-7.8-15l-7.5,15.1l-3.1,6.3l-7,0.1l3.1-6.3l14.4-29l15,28.7L387.9,86.5z"/>
		<path class="st3" d="M415.7,51.2l0.1,6.3l-14.4,0.1l0.3,28.8l-6.3,0.1l-0.3-28.8l-14.4,0.1l-0.1-6.3L415.7,51.2z"/>
		<path class="st3" d="M451.5,68.4c0.1,9.7-7.7,17.6-17.4,17.7c-9.7,0.1-17.6-7.7-17.7-17.4c-0.1-9.7,7.7-17.6,17.4-17.7
			C443.5,50.9,451.4,58.7,451.5,68.4z M445.2,68.4c-0.1-6.2-5.2-11.2-11.4-11.2c-6.2,0.1-11.2,5.2-11.2,11.4
			c0.1,6.2,5.2,11.2,11.4,11.2C440.3,79.7,445.3,74.6,445.2,68.4z"/>
		<path class="st3" d="M483.7,79.4l3.3,6.2l-7,0.1l-3.3-6.2l-3.4-6.5l-0.2-0.3c-1.1-1.8-3.1-3-5.3-3l-6.3,0.1l0.2,16.1l-6.3,0.1
			l-0.3-35.1l22.1-0.2c2.6,0,5,1,6.7,2.7c1.7,1.7,2.8,4,2.8,6.6c0,3.8-2.2,7.1-5.4,8.7c-0.8,0.4-1.7,0.7-2.7,0.8L483.7,79.4z
			 M477.4,63.3c0.5,0,0.9-0.1,1.3-0.3c1.1-0.5,1.9-1.7,1.9-2.9c0-1.2-0.6-1.9-1-2.3c-0.4-0.4-1.2-0.9-2.3-0.9l-15.9,0.2l0.1,6.5
			L477.4,63.3z"/>
	</g>
	<linearGradient id="SVGID_2_" gradientUnits="userSpaceOnUse" x1="176.5459" y1="31.6447" x2="302.8682" y2="31.6447">
		<stop  offset="0" style="stop-color:#FF626B"/>
		<stop  offset="1" style="stop-color:#F6AE04"/>
	</linearGradient>
	<path class="st4" d="M295,47.7H184.4c-4.4,0-7.9-3.5-7.9-7.9V23.4c0-4.4,3.5-7.9,7.9-7.9H295c4.4,0,7.9,3.5,7.9,7.9v16.4
		C302.9,44.2,299.3,47.7,295,47.7z"/>
	<g>
		<path class="st3" d="M138.1,28.6l0,2.6l-6,0l0,12l-2.6,0l0-12l-6,0l0-2.6L138.1,28.6z"/>
		<path class="st3" d="M154.8,28.5l0,14.6l-2.6,0l0-6.7l-9.4,0l0,6.7l-2.6,0l0-14.6l2.6,0l0,5.3l9.4,0l0-5.3L154.8,28.5z"/>
		<path class="st3" d="M159.5,32.5l0,1.4l9.4,0l0,2.6l-9.4,0l0,2.8c0,0.7,0.6,1.3,1.3,1.3l10.7,0l0,2.6l-10.7,0
			c-2.2,0-3.9-1.8-3.9-3.9l0-6.7c0-2.2,1.7-3.9,3.9-3.9l10.7,0l0,2.6l-10.7,0C160.1,31.2,159.5,31.8,159.5,32.5z"/>
		<path class="st5" d="M215.9,21.6l0,3.8l-15.7,0c-1.1,0-2,0.9-2,2l0,2l13.8,0l0,3.8l-13.9,0l0,9.9l-3.8,0l0-15.7
			c0-3.2,2.6-5.8,5.8-5.8L215.9,21.6z"/>
		<path class="st5" d="M236.3,39.3l2,3.8l-4.3,0l-2-3.8l-2.1-4l-0.1-0.2c-0.7-1.1-1.9-1.8-3.3-1.8l-3.8,0l0,9.9l-3.8,0l0-21.5
			l13.6,0c1.6,0,3,0.6,4.1,1.7c1,1,1.7,2.5,1.7,4.1c0,2.3-1.4,4.4-3.4,5.3c-0.5,0.2-1.1,0.4-1.7,0.5L236.3,39.3z M232.5,29.4
			c0.3,0,0.6-0.1,0.8-0.2c0.7-0.3,1.2-1,1.2-1.8c0-0.7-0.4-1.2-0.6-1.4c-0.2-0.2-0.7-0.6-1.4-0.6l-9.7,0l0,4L232.5,29.4z"/>
		<path class="st5" d="M245.3,27.4l0,2l13.8,0l0,3.8l-13.8,0l0,4.1c0,1.1,0.9,2,2,2l15.7,0l0,3.8l-15.7,0c-3.2,0-5.8-2.6-5.8-5.8
			l0-9.9c0-3.2,2.6-5.8,5.8-5.8l15.7,0l0,3.8l-15.7,0C246.1,25.4,245.3,26.3,245.3,27.4z"/>
		<path class="st5" d="M269.8,27.4l0,2l13.8,0l0,3.8l-13.8,0l0,4.1c0,1.1,0.9,2,2,2l15.7,0l0,3.8l-15.7,0c-3.2,0-5.8-2.6-5.8-5.8
			l0-9.9c0-3.2,2.6-5.8,5.8-5.8l15.7,0l0,3.8l-15.7,0C270.7,25.4,269.8,26.3,269.8,27.4z"/>
	</g>
</g>
</svg>
