<?xml version="1.0" encoding="utf-8"?>
<!-- Generator: Adobe Illustrator 22.1.0, SVG Export Plug-In . SVG Version: 6.00 Build 0)  -->
<svg version="1.1" id="Layer_1" xmlns="http://www.w3.org/2000/svg" xmlns:xlink="http://www.w3.org/1999/xlink" x="0px" y="0px"
	 viewBox="0 0 500 500" style="enable-background:new 0 0 500 500;" xml:space="preserve">
<style type="text/css">
	.st0{fill:url(#SVGID_1_);}
	.st1{fill:#FF626B;}
	.st2{fill:#999999;}
</style>
<g>
	<linearGradient id="SVGID_1_" gradientUnits="userSpaceOnUse" x1="33.6658" y1="81.8428" x2="184.5698" y2="196.164">
		<stop  offset="0" style="stop-color:#FF626B"/>
		<stop  offset="1" style="stop-color:#F6AE04"/>
	</linearGradient>
	<polygon class="st0" points="118.8,229.6 155.4,222.1 136.3,151 206.8,140.5 198.1,108.4 127.2,117.1 108.3,46.7 70.6,49.4 
		90,121.7 9,131.6 18.7,168.5 99.3,156.5 	"/>
	<polygon class="st1" points="161.2,243.5 124.7,251.6 178.6,453.3 491,333.2 483.3,306 204.6,404.8 	"/>
	<polygon class="st1" points="218.1,105.9 226.8,137.6 404.4,111.2 455.7,293 477.5,285.7 419.6,81.2 	"/>
	<polygon class="st2" points="181,217 403.5,171.6 391.7,129.7 167.3,166.4 	"/>
	<polygon class="st2" points="260.3,222.3 186.8,238.6 202,294.8 274.8,275.3 	"/>
	<polygon class="st2" points="222.3,369.7 294.2,345.9 279.5,292.5 207,313.1 	"/>
	<polygon class="st2" points="339.5,205.4 275.5,219.6 289.8,271.9 353.3,254.9 	"/>
	<polygon class="st2" points="309,341.7 371.6,320.9 357.8,271 294.5,289 	"/>
	<polygon class="st2" points="409,189.9 352.7,202.5 366.3,251.4 422.1,236.4 	"/>
	<polygon class="st2" points="384.5,316.6 439.5,298.3 426.4,251.6 370.7,267.4 	"/>
</g>
</svg>
